<svg xmlns="http://www.w3.org/2000/svg" xml:space="preserve" style="fill-rule:evenodd;clip-rule:evenodd;stroke-linecap:round;stroke-linejoin:round;stroke-miterlimit:1.5" viewBox="0 0 522 433">
  <path d="M129.06 81.78c.45-2.5 1-5.06 1.63-7.51 1.29-5 2.94-9.6 4.85-12.63a15 15 0 0 0 2.86 4.07c-1.4 5.47-5.94 11.53-8.47 14.9zM124.75 63.55c2.65 0 5.03-.4 7.17-1.45a58 58 0 0 0-4.08 11.43c-.82 3.2-1.5 6.56-2.01 9.8-.5-3.55-1.2-6.98-2.08-10.12a41 41 0 0 0-4.26-10.36c1.63.5 3.38.7 5.26.7ZM113.11 65.68a12 12 0 0 0 2.02-3.8c2.38 2.55 4.33 6.88 5.8 12.1.7 2.54 1.28 5.27 1.74 8.1q-.46-.66-1.08-1.47c-2.53-3.38-7.1-9.46-8.48-14.93ZM134.2 53.84c-.84 1.5-1.77 2.6-2.8 3.4-1.8 1.36-4 1.86-6.65 1.86-2.64 0-4.85-.5-6.64-1.87a11 11 0 0 1-2.59-3 23 23 0 0 1-2.07-4.78c-.72-2.22-1.55-3.58-2.4-4.4a4.3 4.3 0 0 0-3.42-1.29c-.9.06-1.78-.77-2.5-1.97a13 13 0 0 1-1.4-3.7 12 12 0 0 1-.26-3.7c.09-.78.2-1.32.33-1.37a5 5 0 0 0 2.62-1.94c.63-.97.92-2.21.65-3.82a32 32 0 0 1-.47-5.67c.07-5.06 1.6-8.96 4.07-11.73s5.91-4.45 9.82-5.11a24 24 0 0 1 4.24-.32h.05a24 24 0 0 1 4.23.32c3.91.66 7.36 2.35 9.82 5.11 2.48 2.77 4 6.67 4.08 11.73a32 32 0 0 1-.47 5.67c-.27 1.6.01 2.85.65 3.82a5 5 0 0 0 2.62 1.94c.12.05.24.59.33 1.37.12 1.07.02 2.38-.27 3.7-.3 1.34-.77 2.65-1.4 3.7-.71 1.2-1.58 2.03-2.49 1.97a4.3 4.3 0 0 0-3.42 1.3c-.85.81-1.68 2.16-2.4 4.4a24 24 0 0 1-1.85 4.38ZM34.1 226.62q-.83 3.98-2.2 9.05c-.46 1.73-1.22 2.82-2.02 3.4-1.03.76-2.28 1.1-1.83-.46l3.5-12.02q1.32.07 2.54.03ZM27.1 226.02l-3.42 11.76q-.12.4-.18.8c-.84 2.82-4.07 1.1-3.66.02l4.93-13.12q1.16.3 2.33.54M20.56 224.06l-4.88 12.97q-.17.45-.25.9c-1.68 3.98-4.7 1.77-3.73-.36l6.67-14.53q1.06.55 2.19 1.02M14.6 220.63l-6.07 13.22c-1.11 2.6-4.84.12-4.06-1.5l7.7-14.1q1.06 1.29 2.43 2.38M13.7 215.42l.54-.97c.3-.55.45-1.57.25-2.39a3 3 0 0 0-.66-1.33 2.7 2.7 0 0 0-1.86-.97c-.7-.07-1.46.1-2.28.65l-3.53 2.34c-1.06.61-1.79-.64-.79-1.39l10.04-6.55.1-.07c1.87-1.37 3.52-2.16 4.99-2.86l1-.48c1.6-.74 3.35-1.1 5.06-1.08 1.78.01 3.52.44 5.01 1.28a8.2 8.2 0 0 1 3.44 3.62 10 10 0 0 1 .94 4.61l-.01.79c0 2.3-.12 5.27-.68 9.31a91 91 0 0 1-.6 3.72 30 30 0 0 1-11.9-1.88c-3.73-1.38-7.07-3.45-8.9-6.15q-.07-.1-.15-.2ZM27.57 197.43a66 66 0 0 0 11.36-9.35 65 65 0 0 0-4.21 12.11 12 12 0 0 0-1.7-1.16 13 13 0 0 0-5.45-1.6ZM216.27 201.84c-.4-4.92-2-9.67-3.95-14.03 3.6 3.72 7.57 7 11.8 9.72-1.6.23-3.14.73-4.52 1.5a11 11 0 0 0-3.33 2.81ZM217.95 223.66a95 95 0 0 1-.6-3.73 66 66 0 0 1-.69-10.1v-.05q0-2.67.94-4.56a8.2 8.2 0 0 1 3.44-3.62 10.5 10.5 0 0 1 5.01-1.28c1.72-.02 3.47.34 5.07 1.08l1 .48c1.47.7 3.11 1.5 4.98 2.87l.1.06 10.04 6.55q.45.37.46.64 0 .15-.07.3a1 1 0 0 1-.3.3q-.32.22-.87.15l-3.53-2.34a3.5 3.5 0 0 0-2.28-.65c-.8.08-1.41.44-1.87.97-.33.39-.54.86-.66 1.33-.2.82-.04 1.84.26 2.39l.53.97-.16.2c-1.83 2.7-5.17 4.77-8.9 6.15a30 30 0 0 1-11.9 1.88M221.07 226.59l3.61 12.42.04.14.01.27q0 .04-.03.07a1 1 0 0 1-.29.1q-.32.06-.7-.04c-1.11-.29-2.34-1.45-3-3.88q-1.37-5.06-2.19-9.05 1.23.05 2.55-.03M227.85 225.48l4.93 13.12c.14.37-.04.8-.36 1.11q-.27.27-.65.42-.35.15-.74.12c-.63-.04-1.33-.52-1.91-1.67q-.06-.4-.18-.8l-3.42-11.76q1.16-.22 2.33-.54ZM234.25 223.05l6.66 14.52c.37.8.21 1.52-.2 1.99q-.28.3-.64.46-.35.15-.72.12c-.73-.07-1.53-.71-2.16-2.2q-.08-.45-.26-.9l-4.87-12.98q1.13-.46 2.19-1.02ZM240.45 218.25l7.7 14.1c.15.29-.15.9-.64 1.48q-.38.45-.89.77-.44.28-.86.33c-.51.07-1.11-.21-1.68-1.08l-6.06-13.22q1.37-1.1 2.43-2.38ZM105.92 306.59a30 30 0 0 0-1.56 1.97 11 11 0 0 1-2.92 2.57 4.6 4.6 0 0 1-2.34.7 2.3 2.3 0 0 1-1.72-.87 7 7 0 0 1-1.28-2.73v-.02a51 51 0 0 0-1.33-5.26c-.39-1.13-.29-1.82.13-2.27a6 6 0 0 1 2.4-1.24l.64-.2c3.04-1 4.9-.57 6.44.11q.6.32 1.07.68a4.4 4.4 0 0 1 1.66 2.43q.33 1.37-.46 2.97-.3.58-.73 1.16M147.32 299.35a8 8 0 0 1 5.7-.34l.16.08q.4.15.8.28c1.03.42 1.97.9 2.62 1.46.66.58 1 1.33.63 2.38a64.52 64.52 0 0 0-1.46 5.11q-.46 1.5-1.17 2.3-.85.93-1.95.99a5 5 0 0 1-2.73-.78q-1.4-.8-2.77-2.28l-.88-1.16q-.27-.44-.48-.86c-.8-1.58-1.1-3.01-.88-4.2.2-1.1.87-2.05 2.03-2.76zM147.53 400.1c1.31-.78 3.18-.8 5.06-.82 2-.02 4.02-.04 5.77-.76 1 7.57 4.46 11.75 7.68 15.64 2.33 2.82 4.5 5.46 5.13 9.14q.06.35.05.69h.01c0 .95-.45 1.71-1.22 2.3a10 10 0 0 1-4.33 1.6q-1.77.3-3.86.3c-10.9 0-15.6-2.16-17.17-5.46-1.58-3.34-.23-8.43 1.17-13.66.47-1.76.85-3.66 1.18-5.6q.28-1.67.53-3.38ZM147.95 396.76q.14-2.03.17-4.11c2.62-.3 4.29-1.2 5.92-2.1a12 12 0 0 1 4-1.6q-.05 2.01-.03 3.7 0 1.41.07 2.63c-1.42 1.02-3.47 1.04-5.5 1.07-1.6.01-3.18.03-4.64.4ZM148.12 389.67q-.01-1.56-.04-3.12l-.04-1.99c.82-.26 2.1-.42 3.5-.6 2.3-.28 4.84-.6 6.85-1.65q-.16 1.6-.28 3.25v.1l-.01.32c-2.36.28-3.9 1.12-5.47 1.98-1.29.71-2.59 1.43-4.51 1.71M93.36 398.6c1.7.64 3.64.66 5.57.68 1.98.02 3.95.04 5.27.95l.06.53a98 98 0 0 0 .85 5.54q.29 1.43.64 2.77l.06.21c.95 3.55 1.88 7.03 1.88 9.94 0 5.19-3.54 8.97-17.68 8.97-1.96 0-3.83-.2-5.4-.62a8 8 0 0 1-3.26-1.53 2.2 2.2 0 0 1-.85-1.71q0-.4.11-.83c.62-2.31 2.46-4.57 4.48-7.07 3.61-4.43 7.74-9.52 8.27-17.83ZM93.48 388.96c1.62.28 2.8.92 4 1.58 1.67.92 3.38 1.86 6.11 2.13q.1 2.1.28 4.17c-1.53-.46-3.22-.48-4.92-.5-2.02-.02-4.05-.04-5.47-1.03a155 155 0 0 0 0-6.36ZM103.48 384.56a104 104 0 0 0 0 5.13c-1.96-.28-3.29-1-4.59-1.72-1.56-.87-3.1-1.71-5.47-2v-.41q-.13-1.65-.29-3.25c2.01 1.05 4.54 1.37 6.86 1.66 1.39.17 2.67.33 3.49.6ZM434.37 370.34a278 278 0 0 1-1.78 9.45c-1.22 5.9-1.06 13.03.32 19.87 1.34 6.6 3.82 12.97 7.3 17.75a9.2 9.2 0 0 1 1.96 5.31q0 1.26-.48 2.26a4.4 4.4 0 0 1-1.4 1.67c-1.08.78-2.65 1.26-4.72 1.26-1.77 0-3.73.08-5.62.17-3.16.14-6.1.27-8.34-.09-2.76-.43-4.4-1.9-3.74-6.08 1.37-8.62.35-11.92-.57-14.88-.43-1.41-.84-2.73-.82-4.68.02-1.28.42-2.83.84-4.45.5-1.97 1.04-4.04 1.1-6.25q.1-3.2-.3-6.28-.37-3.06-1.1-6.19c-.7-3.12-1.56-6.17-2.45-9.32l-.84-3c1.72 4.19 3.48 8.75 5.04 13.53 1.23 3.76 2.34 7.66 3.22 11.62q.5 3.93 1.34 7.56l.15 1.18a1.47 1.47 0 0 0 2.9-.33l-.15-1.29-.01-.04q-.3-2.2-.7-4.4v-.13c-.18-8.92 2.91-14.05 5.93-19.05a70 70 0 0 0 2.92-5.17M384.45 363.36a211 211 0 0 1-3.55 16.03c-2.14 8.47-3.53 14-2.13 23.26.38 2.46-.02 4.3-.42 6.22-.7 3.3-1.45 6.79.51 13.33 1 3.32.05 4.78-1.89 5.36-2.53.76-6.48.62-10.61.48-1.84-.07-3.72-.13-5.26-.13-2.07 0-3.64-.48-4.72-1.26a4.4 4.4 0 0 1-1.4-1.67 5 5 0 0 1-.47-2.26 9.2 9.2 0 0 1 1.94-5.3 41 41 0 0 0 5.69-11.55 58 58 0 0 0 2.66-14c.4-6.4-.62-11.76-1.72-17.46q-.41-2.08-.79-4.19c.9 1.85 1.94 3.56 2.98 5.3 3 4.97 6.09 10.09 5.93 18.96l-.1.74a86 86 0 0 0-.77 5.2q-.32 1.88-.7 3.75a1.46 1.46 0 1 0 2.86.58 119 119 0 0 0 .75-4v-.01q.42-2.49.74-4.98c.94-5.25 2.35-10.43 3.96-15.37a215 215 0 0 1 6.51-17.03ZM386.44 43.86a12.6 12.6 0 0 0-3.4-4.62l-.77-.66-1 .15c-.74.1-1.39-.51-1.89-1.45a9 9 0 0 1-.87-2.6c-.19-1-.26-2.03-.2-2.98.09-1.53.39-2.77.88-2.9l1.83-.5-.2-1.87q-.17-1.47-.17-3.02c0-4.55 1.14-9.03 3.61-12.47 2.42-3.37 6.18-5.8 11.49-6.38a24 24 0 0 1 5.18 0c5.3.58 9.06 3.01 11.48 6.38 2.48 3.44 3.61 7.92 3.61 12.47q0 1.55-.16 3.02l-.2 1.88 1.83.5c.49.12.78 1.36.87 2.89.06.95 0 1.98-.2 2.98a9 9 0 0 1-.87 2.6c-.5.94-1.15 1.56-1.9 1.45l-.98-.15-.77.66a13 13 0 0 0-3.41 4.62c-3.08-2.05-7.5-3.08-11.9-3.08-4.38 0-8.8 1.03-11.88 3.08ZM308.9 228.15a154 154 0 0 1-2.18 9c-.66 2.42-1.88 3.58-2.98 3.87q-.39.1-.7.04a1 1 0 0 1-.3-.1l-.03-.07.02-.27.03-.14 3.6-12.37q1.31.09 2.53.04ZM301.93 227.55l-3.4 11.7q-.12.42-.18.8c-.58 1.15-1.28 1.63-1.91 1.67q-.38.02-.74-.13-.37-.15-.64-.41c-.33-.32-.5-.74-.36-1.11l4.9-13.06q1.17.3 2.33.54ZM289.49 222.18l-6.04 13.17c-.57.86-1.16 1.14-1.68 1.07a2 2 0 0 1-.86-.33 4 4 0 0 1-.88-.76c-.48-.58-.78-1.2-.63-1.47l7.66-14.05q1.06 1.29 2.43 2.37M295.42 225.6l-4.86 12.91q-.16.45-.25.9c-.63 1.5-1.43 2.13-2.15 2.2q-.37.02-.72-.12-.37-.15-.64-.46c-.4-.47-.56-1.2-.2-1.98l6.64-14.46q1.05.54 2.18 1ZM487.49 225.2a94 94 0 0 1-.6-3.71 66 66 0 0 1-.68-10.06v-.05c-.02-1.77.32-3.28.93-4.54a8.2 8.2 0 0 1 3.43-3.6 10.4 10.4 0 0 1 4.99-1.28c1.7-.02 3.44.34 5.04 1.08l1 .48c1.46.7 3.1 1.48 4.95 2.85l.1.07 10 6.51q.45.37.46.64 0 .15-.07.3a1 1 0 0 1-.3.3q-.32.22-.87.15l-3.51-2.33a3.5 3.5 0 0 0-2.27-.65c-.8.08-1.4.44-1.86.96q-.49.61-.65 1.33c-.2.82-.05 1.84.25 2.38l.53.97q-.09.09-.16.2c-1.82 2.68-5.14 4.74-8.86 6.11-4 1.48-8.4 2.13-11.85 1.88M490.6 228.12l3.59 12.36.04.15.01.26q0 .04-.03.07a1 1 0 0 1-.29.1q-.32.06-.7-.04c-1.1-.28-2.33-1.45-2.98-3.86a154 154 0 0 1-2.18-9q1.22.02 2.53-.04ZM497.35 227.01l4.9 13.06c.14.38-.03.8-.35 1.1a2 2 0 0 1-1.38.55c-.64-.04-1.34-.52-1.91-1.66a6 6 0 0 0-.18-.8l-3.4-11.71a36 36 0 0 0 2.32-.54ZM503.72 224.59l6.63 14.46c.36.79.2 1.51-.2 1.98q-.28.3-.63.46-.36.15-.73.11c-.72-.06-1.52-.7-2.15-2.18q-.08-.45-.25-.9l-4.86-12.92q1.13-.47 2.18-1.01ZM509.9 219.81l7.65 14.05c.15.28-.15.88-.63 1.46q-.38.46-.88.77-.44.28-.86.33c-.51.07-1.1-.21-1.67-1.08l-6.04-13.16q1.36-1.1 2.42-2.37M288.6 217l.53-.97c.3-.54.45-1.56.25-2.38a3 3 0 0 0-.66-1.32 2.7 2.7 0 0 0-1.85-.97c-.69-.06-1.45.1-2.27.65l-3.52 2.33a1.2 1.2 0 0 1-.87-.15 1 1 0 0 1-.3-.3 1 1 0 0 1-.06-.3q0-.28.45-.63l10-6.52.1-.07a27 27 0 0 1 4.72-2.72l1.28-.63c1.58-.72 3.3-1.08 5-1.06 1.77.02 3.5.44 4.99 1.27a8.2 8.2 0 0 1 3.42 3.61 10 10 0 0 1 .94 4.69l-.01.68c0 2.3-.12 5.25-.68 9.28a94 94 0 0 1-.6 3.7c-3.45.25-7.84-.4-11.85-1.88-3.71-1.36-7.04-3.43-8.85-6.12zM390.7 44.97c-.16 4.11-1.23 7.3-3.36 9.99q-.78.97-1.76 1.9 1.24-2.46 1.69-5 .45-2.56.05-5.01c.92-.77 2.07-1.4 3.37-1.88ZM409.35 46.85q-.4 2.46.05 5 .44 2.5 1.62 4.87a19 19 0 0 1-1.53-1.65c-2.27-2.77-3.42-6-3.6-10.13 1.34.5 2.52 1.13 3.46 1.9Z" style="fill:#161410"/>
  <path d="M109.11 319.2c.25 2.7.84 5.52 1.3 7.73l.28 1.38c2.36 11.88 1.37 14.83-1.58 23.54l-1.07 3.18a87 87 0 0 0-3.28 14.11c-.62 4.03-1.01 8.22-1.2 12.42-.97-.24-2.07-.37-3.22-.52l-.27-.03-.54-7.96-.3-4.47c-.59-7.74-.65-14.07-.33-19.35q.2-.34.18-.77l-.05-1.03c1.12-13.72 5-20 8.93-26.35zM94.45 317.49c1.09 8.08 1.29 16.46 1.45 23.41q.05 2.37.12 4.49-.05 1.83-.07 3.79c-.32 5.38-.24 11.8.35 19.62l.3 4.44.5 7.3c-2.15-.49-4.03-1.36-4.6-3.36-.83-5.7-1.99-11.04-3.13-16.3-2.55-11.73-5.01-23.09-3.3-36.96h-.01c2.13-13.43 2.75-19.7 2.22-26.96 3.3 5.55 5.11 12.81 6.14 20.35zM147.94 381.56c-.18-4.2-.57-8.39-1.18-12.42a87 87 0 0 0-3.29-14.1c-.1-.35-.6-1.82-1.07-3.18-2.94-8.72-3.94-11.67-1.57-23.54l.28-1.39a70 70 0 0 0 1.29-7.73l1.15 1.88c3.94 6.36 7.81 12.63 8.93 26.36l-.04 1.03q-.02.42.17.77c.32 5.27.26 11.6-.33 19.35l-.3 4.47-.54 7.95-.27.03c-1.15.15-2.25.29-3.23.52ZM159.51 305.72c.96-3.2 2.18-6.17 3.72-8.76-.53 7.26.1 13.53 2.23 26.96 1.7 13.87-.77 25.23-3.32 36.96-1.14 5.26-2.3 10.6-3.12 16.3-.58 2-2.46 2.87-4.6 3.35l.8-11.73c.59-7.81.66-14.23.34-19.62q0-1.95-.06-3.8l.11-4.48c.16-6.7.35-14.73 1.34-22.54v-.02q.62-4.46 1.32-7.67.71-3.23 1.24-4.95ZM144.75 310.27c2.52 3.51 5 8.86 6.5 18.74a72 72 0 0 0-5.2-9.47c-1.59-2.57-3.18-5.15-4.6-8.21-.37-1-.76-1.9-1.14-2.8-.7-1.68-1.38-3.3-1.87-5.4.76 1 1.65 1.91 2.61 2.89a48 48 0 0 1 2.27 2.44q.7.97 1.43 1.81M154.6 314.15a104 104 0 0 0-.56 3.81v.08q-.4 3.14-.64 6.27a51 51 0 0 0-3.06-10.1q1.26.4 2.48.33a6 6 0 0 0 1.78-.4M101.06 314.49a51 51 0 0 0-2.94 9.83q-.29-3.6-.76-7.2v-.03q-.1-1.38-.27-2.74.91.39 1.91.42 1.03.03 2.06-.28M113.07 303.14a31 31 0 0 1-1.87 5.39c-.38.9-.77 1.8-1.13 2.8-1.42 3.06-3.02 5.64-4.6 8.2a72 72 0 0 0-5.2 9.48c2.23-14.86 6.74-19.46 10.2-23a32 32 0 0 0 2.6-2.87M372.84 295.96q.17 3.34.27 6.78c.25 8.97.11 18.83-.45 32.18-.3 7.3-.24 14.78-.17 22.35.06 6.42.11 12.89-.06 19.36-1.3-.04-2.83-1.16-4.38-3.14-1.78-2.27-3.49-5.59-4.9-9.67l-.46-1.39a68 68 0 0 1-2.85-15.25c-.14-5.69.2-10.18.74-13.92.28-1.99.57-3.77.85-5.42l.02-.08c2.03-10.07 5.02-16.72 7.62-22.52a91 91 0 0 0 3.77-9.28M382.16 361.26l-.16.37-.13.3a83 83 0 0 1-6.46 12.01c.1-5.58.05-11.16 0-16.7-.07-7.5-.13-14.94.17-22.2.56-13.4.7-23.33.45-32.38l-.14-3.95q.78 2.39 1.66 4.94c3.4 9.98 5.4 17.96 7.66 28.1a57 57 0 0 1 1.32 13.58q-.04.15-.05.31c-.26 4.75-2.04 10.36-4.27 15.52zM414.5 361.16c-2.22-5.16-4-10.77-4.27-15.52a2 2 0 0 0-.17-.61c-.05-4.16.35-8.56 1.4-13.27.34-1.55.52-3.1.6-4.57 2.63-10.54 5.02-17.56 7.06-23.54l1.66-4.94q-.08 1.95-.14 3.95c-.25 9.05-.11 18.97.44 32.37.29 6.81.14 14.27-.02 21.87-.1 5.46-.22 10.99-.17 16.42-1.75-2.69-4.01-6.8-6.05-11.39l-.13-.3-.16-.37zM423.86 376.6c-.14-6.44 0-13.1.13-19.64.15-7.66.3-15.17.02-22.04a458 458 0 0 1-.45-32.18q.1-3.44.27-6.78c1 3.12 2.33 6.08 3.77 9.28 2.6 5.8 5.59 12.46 7.62 22.52l.02.08q.42 2.46.85 5.42c.53 3.75.88 8.25.74 13.98a67 67 0 0 1-3.31 16.58c-1.41 4.09-3.12 7.4-4.9 9.67-1.57 2-3.1 3.12-4.42 3.14h-.02zM96.45 296.62q-1.13.27-2.2.09a7 7 0 0 1-2.82-1.25 11 11 0 0 1-1.48-1.3 16 16 0 0 1-2.3-3.11c-.38-2.92-.89-6.22-1.52-10.25l-1.12-7.33-.86-5.51c-3.42-22.08-5.6-36.06 2.61-77.75q.34.88.7 1.93c3.96 11.64 3.74 29.01 3.52 46.6-.26 20.14-.52 40.55 5.43 53.63.37.8.62 1.56.85 2.22q.27.84.56 1.5a7 7 0 0 1-1.37.53M153.8 296.14l-.1-.06q.28-.65.55-1.5.33-.99.85-2.2v-.01c5.95-13.08 5.69-33.5 5.44-53.62-.23-17.6-.45-34.97 3.51-46.61q.37-1.05.7-1.93c8.2 41.7 6.04 55.67 2.6 77.75l-.85 5.51-1.12 7.33c-.63 4.03-1.14 7.33-1.53 10.25a16 16 0 0 1-2.37 3.2q-.67.68-1.4 1.2a7 7 0 0 1-2.83 1.26q-1 .17-2.06-.07l-.26-.12-.68-.21zM127.72 212.84c4.32-1.23 10.09-4.9 15.86-9.09-6.2 7.8-10.68 16.38-12.6 26.27l-.25 1.46c-.84-7.03-1.84-14.76-3.16-18.58zM123.4 212.72l-.02.12c-.39 2-1.3 6.7-2.73 17.84l-.13-.66c-1.91-9.9-6.38-18.48-12.58-26.27 5.59 4.07 11.19 7.64 15.46 8.97M358.98 268.08c-1.13-11-1.52-20.45-1.42-28.9.07-6.12.4-11.72.9-17.01 1.18 5.18 3.19 9.01 5.19 12.83 1.39 2.66 2.78 5.3 3.86 8.45a54 54 0 0 0-6.63 15.07 70 70 0 0 0-1.9 9.57ZM429.12 243.68c1.08-3.24 2.5-5.96 3.93-8.68 1.99-3.8 3.99-7.6 5.17-12.74.5 5.26.82 10.84.89 16.93.1 8.56-.3 18.17-1.47 29.38a72 72 0 0 0-2.1-10.18 57 57 0 0 0-6.43-14.71M405.53 276.67q-.51-2.5-1.21-5.33c-2.27-9.74-2.81-28.19-3.14-39.45l-.1-3.04c3.03 4.02 7.28 4.77 11.46 5.5 1.55.27 3.1.54 4.5 1.01-4.47 8.05-7.49 17.4-9.43 27.24-.92 4.6-1.6 9.32-2.08 14.07M395.59 228.86l-.1 3.03c-.33 11.26-.87 29.71-3.15 39.45q-.68 2.85-1.2 5.33-.73-7.14-2.08-14.07c-1.95-9.84-4.96-19.19-9.44-27.24a31 31 0 0 1 4.5-1.01c4.19-.73 8.44-1.48 11.46-5.5" style="fill:#d4621a"/>
  <path d="M102.22 290.9a17 17 0 0 0-1.2 2.47q-.4.48-.8.88-.06-.26-.18-.61c-.25-.74-.55-1.6-.95-2.48-5.68-12.5-5.43-32.58-5.18-52.38.23-17.85.45-35.49-3.66-47.59l-.51-1.42 1.65 1.41c13.2 11.22 23.2 23.62 26.24 39.39 3.07 15.83-.82 35.17-15.4 60.32zM149.28 290.89c-14.58-25.14-18.47-44.5-15.4-60.32 3.05-15.77 13.05-28.17 26.24-39.39l1.65-1.4q-.25.66-.5 1.42c-4.12 12.1-3.9 29.73-3.67 47.58.25 19.8.5 39.87-5.18 52.38a27 27 0 0 0-1.13 3.1 15 15 0 0 1-.8-.89c-.24-.62-.6-1.44-1.2-2.46zM107.9 297.82l-.16-.08a6 6 0 0 1-1.5-1.07c-1.27-1.22-2-2.92-1.42-4.38a150 150 0 0 0 11.57-24.37q-.38 4.7-.72 9.35c-.37 4.96-.73 9.92-1.22 14.98-.62 3.6-1.99 5.33-3.5 5.85-.76.26-1.59.22-2.38-.02a5 5 0 0 1-.68-.27ZM137.07 292.26c-.5-5.07-.86-10.03-1.23-15q-.34-4.64-.72-9.34c2.7 7.51 6.5 15.6 11.58 24.37.58 1.46-.16 3.16-1.43 4.38a6 6 0 0 1-2.33 1.4c-.8.25-1.61.29-2.37.03-1.52-.52-2.88-2.25-3.5-5.85ZM134.95 206.08c13.29-15.68 14.73-38.67 15.37-49l.07-1.1c2.53.45 5.15.38 7.41-.08q1.37-.27 2.55-.74c-.2 2.06-.3 3.93-.31 5.72-.06 5.97.84 10.86 2.6 19.06l.96 4.56c-.77.5-1.74 1.32-3.07 2.47l-.17.14a256 256 0 0 0-6.94 5.38c-5.59 4.42-12.48 9.87-18.47 13.6ZM87.92 184.5q.45-2.22.96-4.56c1.75-8.2 2.65-13.09 2.6-19.06a68 68 0 0 0-.32-5.72q1.19.46 2.55.74c2.26.46 4.89.53 7.41.09l.07 1.1c.65 10.32 2.08 33.31 15.37 49-5.99-3.73-12.88-9.18-18.46-13.6a256 256 0 0 0-6.95-5.38l-.17-.15c-1.33-1.14-2.3-1.97-3.06-2.46ZM100.93 153.04c-2.25.44-4.62.4-6.64-.02a10 10 0 0 1-3.5-1.31 20 20 0 0 0 1.6-5.35q1.82.54 3.59.73c1.4.16 2.75.17 3.88.08q.37 3.12 1.07 5.87M160.73 151.71a10 10 0 0 1-3.5 1.31c-2.03.41-4.4.46-6.65.02q.7-2.76 1.07-5.87a21 21 0 0 0 7.47-.8c.32 1.91.83 3.72 1.6 5.34ZM158.78 143.4a18.02 18.02 0 0 1-6.84.85q.08-1.03.13-2.08.09-.34.12-.76.04-.58.03-1.5 1.83-.14 3.64-.49 1.43-.3 2.8-.75a54 54 0 0 0 .12 4.73ZM158.77 135.5q-1.72.7-3.49 1.04-1.6.33-3.25.43c-.13-1.14-.34-2.4-.66-3.7a27 27 0 0 0 3.8-.94c1.22-.38 2.54-.86 3.86-1.42l-.03.46zM159.22 127.62a45 45 0 0 1-4.93 1.9c-1.56.5-2.9.82-3.8.91a17 17 0 0 0-3.13-5.3c3.65-.78 7.84-2.52 11.83-4.72.2 2.18.15 4.64.03 7.21ZM104.15 125.13a17 17 0 0 0-3.12 5.3c-.9-.1-2.25-.41-3.8-.9a45 45 0 0 1-4.93-1.91c-.13-2.57-.17-5.03.02-7.2 4 2.19 8.18 3.93 11.83 4.71M100.14 133.27q-.47 1.97-.66 3.7a26 26 0 0 1-3.25-.43 19 19 0 0 1-3.49-1.04l-.23-4.13-.03-.46q2.01.85 3.86 1.42c1.43.45 2.74.78 3.8.94M99.57 144.25a18 18 0 0 1-6.84-.86q.16-2.3.11-4.72 1.38.47 2.81.75 1.8.36 3.64.48 0 .92.03 1.5.03.42.12.77zM365.78 173.32c.28-3.07.32-5.82.02-8.6-.43-4.04-1.62-9.24-2.94-15.03-.9-3.93-1.86-8.15-2.68-12.41-.25-2.4-.56-5.25-.91-8.36 1.22 2.8 2.54 5.47 3.83 8.06 5.07 10.2 9.58 19.28 4.53 31.7-.69 1.68-1.3 3.2-1.85 4.64M436.99 129.86l-.06 1.23c-.48 9.03-2.17 15.77-3.66 21.73-1.03 4.13-1.97 7.9-2.4 11.9-.3 2.78-.26 5.53.02 8.6q-.82-2.13-1.85-4.64c-5.06-12.42-.54-21.5 4.53-31.7 1.15-2.3 2.32-4.66 3.42-7.12" style="fill:#d4621a"/>
  <path d="m127.12 172.33.2-.01c8.82-.85 14.85-4.02 18.8-9.35q.49-.67.95-1.39c-1.02 12.93-4.21 35.44-19.95 48.07z" style="fill:#d4621a"/>
  <path d="M127.12 151.43q.15 0 .3-.02c4.37-.72 8.43-.52 11.84.2 3.36.7 6.06 1.87 7.77 3.13a23 23 0 0 1-3.27 6.48c-3.43 4.63-8.77 7.4-16.64 8.17zM124.17 209.47c-15.55-12.66-18.71-35.03-19.72-47.89q.45.72.94 1.39c3.95 5.32 9.97 8.49 18.78 9.35z" style="fill:#d4621a"/>
  <path d="M124.17 169.37c-7.75-.81-13.02-3.57-16.42-8.15a23 23 0 0 1-3.27-6.48c1.71-1.26 4.4-2.44 7.77-3.14 3.41-.7 7.47-.9 11.85-.19l.07.01zM127.12 136.24q.18.01.36-.04c3.56-.75 8.15-.52 12.46.83 3.52 1.1 6.82 2.93 9.17 5.57a53 53 0 0 1-1.24 9.18 25 25 0 0 0-8-3.06 36 36 0 0 0-12.75-.23zM127.12 124.46q.2.01.41-.04c.96-.24 2.41-.44 4.28-.35 1.38.06 2.97.28 4.74.75 2.02.6 4.35.9 7 .79 4.27 3.13 5.44 9.25 5.68 13.05a25 25 0 0 0-8.42-4.44 29 29 0 0 0-13.7-.94zM124.17 148.45c-4.6-.7-8.9-.48-12.52.28-3.24.67-6 1.78-8.01 3.05a53 53 0 0 1-1.23-9.18c2.34-2.64 5.64-4.47 9.16-5.57 4.31-1.35 8.9-1.58 12.46-.83l.14.03zM124.17 133.24a29 29 0 0 0-13.47.98 25 25 0 0 0-8.42 4.44c.24-3.8 1.4-9.91 5.68-13.05 2.65.1 4.98-.2 7-.79 1.77-.47 3.36-.69 4.74-.75a15 15 0 0 1 4.47.38zM37.14 203l.04-.16c1.6-9.21 6.8-18.67 10.42-25.23l1.66-3.05.06-.1a66 66 0 0 0 7.45-18.64l.3-.01c1.9-.2 6.54-1.44 11.02-3.88q.59-.3 1.17-.66-.48 1.05-.92 2.18-.98 2.47-1.8 4.88l-1.35 4.06c-2.56 7.72-3.76 11.34-9.34 16.1-4 3.43-7 6.28-9.65 9.53-2.68 3.27-5 6.92-7.67 11.93l-.07.15q-.8 1.5-1.3 2.94zM30.41 189.86c1.12-3.45 2.08-6.71 2.99-9.8 3.74-12.7 6.5-22.1 17-30.81.94-.78 1.81-1.35 2.61-1.88q1.21-.78 2.23-1.55c-.54 9.6-3.63 18.91-8.46 27.16a67 67 0 0 1-17.33 19.55q.36-.9.72-1.94l.02-.06zM194.74 155.82c1.82 9.42 6.01 16.4 10.21 24.05 2.84 5.17 6.33 11.54 7.79 18.26-3.5-5.43-7.04-8.93-10.57-12.42-5.94-5.88-11.84-11.72-17.2-27.38a102 102 0 0 0-2.72-7.06l1.17.66c4.48 2.44 9.13 3.67 11.02 3.88q.15.02.3.01M223.65 193.68a66.5 66.5 0 0 1-18.93-20.7c-4.82-8.25-7.9-17.57-8.45-27.16a31 31 0 0 0 2.23 1.55c.8.53 1.67 1.1 2.6 1.88 11.27 9.34 14.46 19.52 18.88 33.65a561 561 0 0 0 2.53 7.9q.56 1.61 1.14 2.88ZM487.16 202.07q-1.26 1.1-2.17 2.6a22.5 22.5 0 0 0-4.9-7.95 232 232 0 0 1-11.5-14.71l1.32 1.09c6.93 5.72 14.27 11.79 17.25 18.97ZM495.2 199.05c-1.96.06-3.86.52-5.56 1.36-3.38-7.6-10.83-13.75-17.87-19.57-3.65-3.02-7.19-5.94-9.9-8.87-4.5-7.25-8.22-14.6-10.06-21.14q-.19-.67-.4-1.35l1.07 1.68c4.49 7.02 9.33 13.84 13.65 18.9a274 274 0 0 0 16.5 17.68c4.37 4.29 8.64 8.12 12.56 11.3ZM446.1 134.59a46 46 0 0 0 7.84 3.46c3.6 1.32 6.88 2.53 8.58 4.93q.56.98.98 2.06a46 46 0 0 0 8.74 16.4q.54.76 1.2 1.41.86.96 1.8 1.93a77 77 0 0 1 10.01 12.92 63 63 0 0 1 6.37 13.48l.1.38.04.12.3.86q-3.61-3.19-7.4-6.89a270 270 0 0 1-16.3-17.5c-4.25-4.96-9-11.65-13.41-18.55-3.26-5.1-6.32-10.31-8.85-15.01ZM471.73 144.97a78 78 0 0 0 3.35 6.39 158 158 0 0 1 10.32 21.24 79 79 0 0 0-8.07-9.86 50 50 0 0 1-2.79-3.1c-2.23-3.27-2.54-8.85-2.81-14.67M309.57 201.88c2.67-6.59 9-12.23 15.38-17.53a86 86 0 0 0-9.71 14.67 40 40 0 0 0-2.93 5.87l-.09.23c-.69-1.28-1.6-2.36-2.65-3.24M301.43 199.04q.6-.77 1.16-1.77c3.88-3.15 8.07-6.84 12.36-10.95 5.23-5 10.6-10.62 15.73-16.63 4.32-5.06 9.16-11.88 13.65-18.9l1.01-1.6q-.25.8-.48 1.64a70 70 0 0 1-8.84 19.55c-2.81 3.34-6.83 6.65-10.99 10.09-7.11 5.87-14.64 12.1-17.97 19.82a14 14 0 0 0-5.63-1.26ZM350.7 134.21a236 236 0 0 1-8.84 15.01c-4.4 6.9-9.16 13.6-13.4 18.56a228 228 0 0 1-23.5 23.68l.06-.2q.05-.1.09-.2a63 63 0 0 1 6.45-13.74 77 77 0 0 1 10.01-12.92q.94-.96 1.8-1.92.7-.67 1.27-1.5a46 46 0 0 0 8.67-16.32q.4-1.07.98-2.05c1.7-2.4 4.98-3.61 8.58-4.93 2.57-.95 5.3-1.95 7.84-3.47ZM322.37 159.13a50 50 0 0 1-2.9 3.24 80 80 0 0 0-11.33 14.96 86 86 0 0 1 3.97-12.31c2.75-6.6 6.4-12.2 11.4-16.21q1.01-.83 1.77-1.68c-.26 4.79-1 9.2-2.9 12M58.2 140.29q.09-.95.01-2.13c-.3-4.81.02-9.24.86-13.27 1.88-6.8 6.7-9.61 15.25-14.59l1.83-1.06c.47 6.18-.77 15.9-4.73 25.07-2.98 6.9-7.48 13.45-13.93 17.88q.98-5.88.72-11.9ZM175.36 109.24l1.83 1.06c8.55 4.98 13.37 7.78 15.25 14.6.85 4.02 1.17 8.45.86 13.26q-.08 1.19 0 2.13-.26 6.02.73 11.9c-6.46-4.43-10.96-10.98-13.94-17.88-3.96-9.17-5.2-18.9-4.73-25.07" style="fill:#d4621a"/>
  <path d="M84.56 130.76c-1.43.3-3.14 1.93-5.49 5.42l-5.01 7.05-.22.3-.07.08c-1.82 2.4-4.43 4.3-7.08 5.74q-1.41.76-2.78 1.36c4.48-4.34 7.82-9.7 10.21-15.23 3.74-8.66 5.16-17.84 5.05-24.4 2.7 5.08 4.28 12.76 5.39 19.68ZM177.67 143.54l-.21-.3-5.02-7.06c-2.35-3.5-4.05-5.12-5.48-5.42 1.1-6.92 2.69-14.6 5.38-19.68-.11 6.56 1.32 15.74 5.05 24.4a47 47 0 0 0 10.22 15.23q-1.37-.6-2.78-1.35c-2.66-1.45-5.26-3.35-7.1-5.74zM67.33 106.99c2.16-3.6 4.6-7.15 7.24-10.4 4.76-5.86 10.12-10.71 15.52-13.02v.4a22.4 22.4 0 0 1-3.7 12.8c-2.35 3.53-5.74 6.38-9.76 8.77l-.08.05-3.7 2.17c-3.62 2.1-6.62 3.85-9.06 5.67a95 95 0 0 1 1.7-3.23l.2-.27c.54-.74 1.13-1.78 1.64-2.94M178.66 107.76c-5.21-3.04-10-5.7-13.54-10.99a22.4 22.4 0 0 1-3.7-13.2c5.4 2.3 10.76 7.16 15.52 13.02a91 91 0 0 1 7.24 10.4c.51 1.16 1.1 2.2 1.64 2.94l.2.27q.9 1.62 1.7 3.23a99 99 0 0 0-9.06-5.67M68.78 99.4c.54-12.52 10.13-18.41 20.28-22.43.1 1.14.31 2.03.52 2.92l.15.66c-6.17 2.38-12.19 7.72-17.44 14.19a86 86 0 0 0-3.51 4.65M161.79 80.55l.15-.66c.23-1 .46-2 .55-3.38 10.23 4.4 19.67 10.72 20.24 22.88a87 87 0 0 0-3.51-4.65c-5.25-6.47-11.27-11.8-17.43-14.19ZM343.28 102.8q.37-2.57.66-4.97c1.07-8.68 1.92-15.6 10.9-20.74l.12-.07.93-.51c2.31-1.27 4.84-2.53 7.41-3.78 2.52 3.26 1.91 6.83-.06 10.17-2.33 3.95-6.46 7.62-9.9 10.24q-.1.07-.2.15l-.24.17a46 46 0 0 0-9.62 9.33ZM441.96 77.47c4.77 2.72 7.25 5.94 8.68 9.67 1.17 3.2 1.6 6.77 2.1 10.7q.28 2.39.65 4.95a46 46 0 0 0-9.62-9.33l-.08-.06q-.2-.22-.47-.35c-3.41-2.61-7.49-6.24-9.8-10.15-1.96-3.34-2.57-6.91-.05-10.17a186 186 0 0 1 8 4.1q.2.4.6.63M336.07 100.3a25.7 25.7 0 0 1 7.45-14.97c-1.45 3.64-1.94 7.68-2.5 12.15-.44 3.66-.93 7.63-2.05 11.88-1.74-2.25-3.07-4.49-2.9-9.06ZM457.84 109.73a87 87 0 0 1-2.06-11.88c-.54-4.37-1.03-8.34-2.4-11.92l-.23-.6q.7.7 1.34 1.46a26 26 0 0 1 6.27 14.76c-.03 3.99-1.3 6.08-2.92 8.18M127.3 98.35c.22-4.7 1.01-9.97 3-12.93l.34-.19a31 31 0 0 1 13.41-4.1c4.85-.4 9.82.17 14.47 1.45q-.04.63-.04 1.38 0 3.7.82 6.86c-3.7 1.84-12.81 5.32-32 7.53ZM124.58 98.29c-.22-4.79-1.03-10.16-3.05-13.17l-.36-.2a31.5 31.5 0 0 0-13.65-4.17c-4.93-.4-10 .17-14.73 1.48q.05.65.05 1.4-.02 3.76-.84 6.98c3.76 1.88 13.04 5.42 32.58 7.67Z" style="fill:#d4621a"/>
  <path d="M129.96 116.32q-.34-.6-.6-1.23l-.03-.05c-1.06-2.56-1.74-6.28-2-10.3a61 61 0 0 1-.03-6.39c19.18-2.21 28.3-5.69 32-7.53.7 2.8 1.86 5.32 3.38 7.59q1.51 2.25 3.46 4.17a129 129 0 0 1-36.18 13.74ZM121.87 116.58q.35-.61.61-1.25l.03-.05c1.08-2.6 1.77-6.4 2.03-10.5.11-1.74.15-4.04.04-6.5-19.54-2.25-28.82-5.79-32.58-7.66a25 25 0 0 1-3.44 7.72 28 28 0 0 1-3.54 4.26 132 132 0 0 0 36.85 13.98" style="fill:#d4621a;stroke:#d4621a;stroke-width:10.2px"/>
  <path d="M166.15 102.58q2.41 2.38 5.36 4.32-.31.42-.61.87c-2.36 2.93-6.73 6.35-11.56 9.19-5.09 2.98-10.62 5.28-14.78 5.64l-.76.05c-3.64.2-6.54-.44-8.8-1.58-2.34-1.18-4-2.9-5.04-4.75a129 129 0 0 0 36.19-13.73ZM85.02 102.6a36 36 0 0 1-5.46 4.4q.32.42.63.88c2.4 2.98 6.84 6.47 11.77 9.35 5.17 3.04 10.81 5.38 15.05 5.75l.77.05c3.7.2 6.66-.45 8.95-1.6a12 12 0 0 0 5.14-4.85 132 132 0 0 1-36.85-13.98M91.94 75.88q2.73-.98 5.36-1.87c1.39-.47 2.74-.93 4.46-1.55 3.47-1.25 6.55-2.51 8.99-4.43 1.56 4.58 4.7 9.2 7.1 12.47a36 36 0 0 0-10.16-2.3 45 45 0 0 0-15.15 1.47l-.1-.44a16 16 0 0 1-.5-3.35M158.97 79.67a45 45 0 0 0-15.15-1.47 36 36 0 0 0-10.16 2.3c2.45-3.34 5.65-8.05 7.19-12.72q.94.63 1.69.98c2.84 1.35 6.35 2.62 10.1 3.98q3.41 1.2 6.94 2.58c0 1.72-.26 2.81-.51 3.91zM396.87 43.76v72.45c-3.96-1.01-6.52-8.38-9.27-16.83l-.04-.14-.34-1.03c-3.87-11.9-8.22-25.29-18.25-28.25q3.96-1.93 7.77-4.12c5.91-2.8 10.13-5.58 12.89-9.06 2.7-3.42 3.97-7.41 4-12.62q1.57-.3 3.24-.4ZM402.96 44.14c.04 5.23 1.4 9.28 4.27 12.79 2.95 3.6 7.46 6.52 13.75 9.5q3.3 1.86 6.72 3.53c-10.03 2.96-14.38 16.35-18.25 28.25-2.9 8.93-5.5 16.94-9.65 18V43.76q1.63.1 3.16.38M161.97 118.8a61 61 0 0 0 5.59-3.87c-2.75 8.1-4.3 20.17-5.75 29.31-.41-3.91-.14-8.36.13-12.7.28-4.57.55-9.01.03-12.74M89.7 144.24c-1.45-9.14-3-21.22-5.75-29.3 1.71 1.33 3.6 2.64 5.59 3.86-.52 3.73-.25 8.17.03 12.75.27 4.33.54 8.78.13 12.69Z" style="fill:#d4621a"/>
  <path d="M371.54 166.38c3.53-11.88-.9-20.8-5.82-30.7-3.53-7.1-7.33-14.75-8.4-24.35a2 2 0 0 0-.08-.37c-.58-5.28-1.1-10.3-1.46-14.26a68 68 0 0 0 13.66 3.7c4.9.82 10.3 1.24 15.71.9 3.04 9.27 6 17.16 11.7 17.9-.45 17.85-9.25 28.1-18.07 38.37a184 184 0 0 0-7.24 8.8ZM439.16 112.8c-1.27 8.92-4.86 16.14-8.21 22.88-4.92 9.9-9.35 18.82-5.82 30.7-2.3-3.05-4.78-5.93-7.25-8.8-8.81-10.28-17.61-20.53-18.06-38.38 5.7-.74 8.66-8.63 11.7-17.9 5.42.34 10.83-.08 15.76-.9a69 69 0 0 0 13.53-3.65c-.39 4.4-1 10.12-1.65 16.04ZM356.94 94.01c3.23-2.64 6.68-6 8.82-9.62 2.28-3.86 3.12-8 .9-11.93 9.45 1.62 13.8 14.42 17.55 25.96-4.92.24-9.82-.16-14.3-.9A65 65 0 0 1 356.95 94M439.74 94.02a65 65 0 0 1-12.95 3.5c-4.48.75-9.4 1.14-14.33.9 3.76-11.54 8.1-24.34 17.56-25.96-2.23 3.94-1.39 8.07.89 11.93 2.14 3.63 5.6 7 8.83 9.63M364 309.56c.1-4.07-.24-8.7-1.3-14.89q-.72-4.11-1.31-7.98c-.6-10.26.1-19.4 2.3-27.4a52 52 0 0 1 4.9-11.99q.62 2.77.83 6.2l-.01.73c-.09 5.8.65 11.96 1.43 18.4l.02.15c.23 3.18.54 6 .9 8.56.5 9.63-2.13 15.5-5.36 22.7-.78 1.75-1.6 3.56-2.4 5.52ZM377 236.65c4.34 7.79 7.28 16.9 9.19 26.52a169 169 0 0 1 2.92 27.29c-.26 3.64-.2 6.48-.14 9.03.11 5.3.2 9.28-3.1 17.33l-.02.04q-.2.51-.5 1.73a291 291 0 0 0-5.03-15.88c-2.46-7.24-4.41-12.96-5.65-21.69q-.07-1.4-.24-2.88c-.24-2.16-.46-4.02-.68-5.86-.77-6.37-1.5-12.47-1.42-18.01v-.09q.05-.19.03-.4l-.02-.37c.12-5.2.6-8.96 1.43-11.68.77-2.51 1.84-4.08 3.22-5.08ZM424.34 253.96v.3c.08 5.55-.65 11.65-1.42 18.02l-.68 5.85q-.16 1.5-.24 2.88c-1.24 8.74-3.19 14.45-5.66 21.7-1.5 4.4-3.18 9.35-5.03 15.88q-.28-1.22-.5-1.74v-.03c-3.31-8.05-3.22-12.03-3.1-17.34.05-2.55.11-5.38-.15-9.03.29-9.1 1.16-18.4 2.92-27.29 1.9-9.62 4.84-18.72 9.2-26.51 1.38 1 2.46 2.56 3.22 5.07.86 2.8 1.33 6.68 1.44 12.08zM435.32 286.41q-.6 4.01-1.34 8.26c-1.07 6.2-1.4 10.82-1.3 14.9-.82-1.97-1.63-3.78-2.41-5.52-3.23-7.2-5.86-13.08-5.35-22.72.36-2.56.66-5.37.9-8.55l.01-.16c.78-6.43 1.52-12.6 1.43-18.4v-.33q.18-3.45.78-6.25a56 56 0 0 1 4.69 11.55c2.26 7.97 3.15 17.07 2.6 27.22Z" style="fill:#d4621a"/>
  <path d="M373.45 236a48 48 0 0 0-3.9 4.53c-1-2.47-2.15-4.67-3.31-6.88-3.59-6.84-7.2-13.72-5.5-29.3l.67-4.12c1.48-7.17 2.51-11.81 3.74-16.08 2.55-7.78 6.91-13.95 11.68-19.74 1.1 9.17 5.7 13.99 10.3 18.81 4.72 4.95 9.44 9.9 9.74 20.07v8.72c-.52 17.22-6.98 18.35-13.25 19.45-2.8.5-5.57.98-8.03 2.6a10 10 0 0 0-2.14 1.93M423.1 235.85q-.9-1.06-2.02-1.78c-2.46-1.63-5.23-2.12-8.03-2.6-6.27-1.1-12.73-2.24-13.25-19.46v-8.72c.3-10.17 5.02-15.12 9.74-20.07 4.6-4.82 9.2-9.64 10.3-18.81 4.77 5.8 9.14 11.96 11.68 19.74a217 217 0 0 1 3.74 16.08l.75 4.7q.29 2.84.35 5.3v1.18a69 69 0 0 1-.88 9.62c-1.1 5.15-3.07 8.9-5.02 12.62a74 74 0 0 0-3.37 7.02 50 50 0 0 0-4-4.82" style="fill:#d4621a"/>
  <path d="m379.53 161.2 1.48-1.72c6.18-7.2 12.35-14.4 15.86-24.1V191c-2.02-3.93-4.82-6.87-7.62-9.8-4.71-4.94-9.42-9.87-9.72-20M399.8 191v-55.62c3.5 9.7 9.68 16.9 15.86 24.1l1.48 1.73c-.3 10.13-5.01 15.06-9.72 20-2.8 2.93-5.6 5.87-7.62 9.8M344.67 118.62l-.3-.78c-1.26-3.74-2.47-7.47-.42-10.9a41 41 0 0 1 8.93-9.78c.64 7.12 1.83 17.62 2.88 26.85l.07.6c-3.18 6.36-8.89 8.46-13.97 10.32l-.36.13c6.38-5.36 5.03-10.71 3.25-16.08a2 2 0 0 0-.08-.36" style="fill:#d4621a"/>
  <path d="M341.65 118.94c1.65 4.89 3.3 9.77-2.6 14.34a38 38 0 0 0-3.78 3.32q.49-2.52.95-5.08c.9-5.02 1.83-10.17 3.6-15.52q.12-.15.19-.34.88 1.4 1.64 3.28ZM328.28 131.8c.13-2.67.53-5.6 1.77-8.83.87-2.26 1.72-4.3 2.41-5.94 1.37-3.26 2.09-4.98 2.62-8.12.68 1.12 1.5 2.13 2.35 3.2l.45.57-.15.44v.02c-2.29 6.2-3.36 12.12-4.4 17.87-1.19 6.64-2.35 13.06-5.4 19.42.46-4.2.41-8.77.36-13-.02-1.98-.04-3.89 0-5.63ZM467.44 132.48c.95 3.65 1.15 8 1.35 12.23.1 2.34.22 4.65.44 6.83-3.32-6.6-4.52-13.25-5.76-20.16-1.04-5.75-2.1-11.66-4.39-17.87l-.07-.16-.1-.29.47-.57q.97-1.2 1.82-2.4c.08 3.07.37 4.75 3.04 11.7A86 86 0 0 1 467.4 132q-.02.22.04.47ZM456.8 116.03l.01.02q.07.18.17.32c1.78 5.34 2.7 10.5 3.61 15.52q.46 2.56.95 5.08a38 38 0 0 0-3.78-3.32c-5.9-4.57-4.25-9.45-2.6-14.34a22 22 0 0 1 1.64-3.28Z" style="fill:#d4621a"/>
  <path d="M452.06 119.35c-1.79 5.37-3.13 10.73 3.25 16.08l-.36-.13c-4.83-1.77-10.23-3.75-13.48-9.42l-.33-.6-.34-.67-.03-.06.07-.54 1.42-12.62c.58-5.28 1.1-10.31 1.46-14.28a41 41 0 0 1 8.9 9.7q.06.21.18.41c2.13 3.46.91 7.22-.36 11l-.3.77q-.06.18-.08.36Z" style="fill:#d4621a"/>
  <path d="M125.21 0q2.34 0 4.53.37c4.87.82 9.22 2.99 12.4 6.54 3.15 3.54 5.1 8.41 5.2 14.63q.03 3.03-.53 6.45-.09.56-.01.65t.38.2c1.94.68 2.99 2.61 3.26 5.06.18 1.55.05 3.36-.33 5.13a17 17 0 0 1-1.94 5.04c-1.52 2.55-3.74 4.3-6.57 4.12l-.08.06c-.37.35-.78 1.11-1.24 2.56a30 30 0 0 1-1.88 4.58c.15 2.17.81 3.92 1.67 5.31 1.35 2.2 3.2 3.48 4.38 4.04 2.8 1.34 6.13 2.54 9.7 3.83 14.83 5.36 33.4 12.06 33.03 32.51a9 9 0 0 0 .6 2.98 13 13 0 0 0 1.6 3.23 42 42 0 0 1 6.83 14.3 52 52 0 0 1 1.52 16.85c-.2 3 1.23 3.94 3.2 5.24.95.62 1.98 1.3 3 2.15 12.28 10.18 15.64 20.89 20.29 35.75q1.04 3.38 2.24 7.04c2.2 6.7 4.44 7.78 7.56 9.27 1.66.8 3.52 1.68 5.68 3.26l10.07 6.57.12.08a5.2 5.2 0 0 1 2.23 4c.04.91-.17 1.8-.6 2.58a5.3 5.3 0 0 1-1.74 1.92 5.7 5.7 0 0 1-4.9.64l-.13-.05 7.28 13.35c1.1 2 .44 4.55-1.12 6.42a8 8 0 0 1-1.98 1.73 6.7 6.7 0 0 1-3.43 1 6.1 6.1 0 0 1-3.73 4.73q-1.33.57-2.85.43a6.2 6.2 0 0 1-3.53-1.55 6.4 6.4 0 0 1-4.64 1.68 6 6 0 0 1-3.62-1.49 5 5 0 0 1-1.96.78q-1.22.22-2.59-.12c-2.43-.64-5.02-2.79-6.17-7.01a131 131 0 0 1-3.46-16.3 71 71 0 0 1-.72-9.92c0-1.14-.08-2.49-.38-3.95q-.25-1.28-.78-2.66c-3.88-7.08-7.97-11.12-12.03-15.14-6.31-6.23-12.58-12.43-18.28-29.1-.57-1.65-1.13-3.25-1.71-4.68a43 43 0 0 0-1.9-4.18c-.97-1.83-2.02-3.29-2.98-4.63l-.33-.47-5.02-7.06-.04-.05c-.93-1.4-1.31-1.48-1.69.76-1.73 10.25-2.58 16.3-2.62 21.45-.06 5.5.81 10.19 2.5 18.1 10.82 50.62 8.54 65.3 4.76 89.63l-.84 5.5-1.14 7.34c-2.78 17.88-3.24 20.83.1 41.83v.08c1.8 14.6-.74 26.32-3.37 38.43-1.65 7.61-3.34 15.39-3.95 24.05-.07 2.66-.11 4.87-.1 6.74a44 44 0 0 0 .27 4.96c.79 6.54 3.88 10.28 6.75 13.76 2.72 3.29 5.27 6.37 6.09 11.24q.12.76.12 1.42c0 2.48-1.1 4.4-2.96 5.83a14 14 0 0 1-6.3 2.46q-2.19.36-4.59.36c-13 0-18.9-3.17-21.18-8.01-2.27-4.8-.73-10.67.89-16.7q.65-2.48 1.1-5.2.45-2.8.83-5.59c.3-3.35.25-6.93.18-10.52l-.02-1.45c-.08-5.1-.49-10.32-1.26-15.36a82 82 0 0 0-3.1-13.38l-1.06-3.16c-3.23-9.56-4.32-12.8-1.73-25.8l.3-1.44c.75-3.6 1.87-8.99 1.03-11.64-.5-1.6-1.04-2.88-1.56-4.14-1.09-2.56-2.11-5-2.63-9.02a429 429 0 0 1-2.2-23.65c-.76-10.3-1.52-20.61-3.47-32.26-.2-1.2-.72-5.66-1.34-10.93-.26-2.26-.29-4.7-.21-7.08l-.13-.9-.85-6.4c-.14 4.67-.08 11.65-.76 17.06-.52 4.16-.94 7.44-1.07 8.24-1.95 11.65-2.71 21.96-3.47 32.27-.57 7.64-1.13 15.27-2.2 23.65a31 31 0 0 1-2.62 9.02 44 44 0 0 0-1.57 4.13c-.83 2.66.29 8.05 1.04 11.65l.3 1.44c2.59 13 1.5 16.24-1.74 25.8l-1.05 3.16a83 83 0 0 0-3.11 13.38 115 115 0 0 0-.15 32.89q.21 1.42.47 2.74.26 1.3.57 2.48l.05.21c1.03 3.84 2.04 7.61 2.04 11.09 0 7.76-4.44 13.42-22.13 13.42-2.3 0-4.56-.26-6.54-.78-2-.54-3.75-1.36-5.04-2.49a6.5 6.5 0 0 1-2.38-5.04q0-.93.27-1.96c.86-3.23 2.99-5.85 5.33-8.74 3.24-3.98 6.96-8.55 7.3-15.63q.13-2.51.13-5.5t-.1-6.63c-.6-8.67-2.3-16.44-3.95-24.05-2.63-12.11-5.17-23.83-3.38-38.44l.02-.08c3.33-20.99 2.87-23.95.09-41.82l-1.98-12.85c-3.78-24.32-6.06-39 4.76-89.61 1.69-7.92 2.56-12.6 2.5-18.1-.04-5.16-.9-11.23-2.62-21.48-.5-2.98-.57-1.87-1.7-.74l-.03.05-5.01 7.05-.34.48c-.96 1.34-2 2.8-2.97 4.63a43 43 0 0 0-1.9 4.17 102 102 0 0 0-1.71 4.68c-.7 2-1.04 3.05-1.36 4.02-2.83 8.53-4.16 12.53-10.66 18.09-3.79 3.24-6.6 5.92-9.1 8.97-2.48 3.03-4.65 6.45-7.18 11.2l-.1.16a17 17 0 0 0-1.6 4.47c-.3 1.46-.39 2.8-.39 3.95 0 2.49-.12 5.67-.71 9.92s-1.63 9.55-3.46 16.3c-1.24 4.54-6.2 9.39-10.72 6.35a6.15 6.15 0 0 1-8.27-.2 6.1 6.1 0 0 1-10.1-3.61c-4.31.02-8.7-5.16-6.53-9.14l7.28-13.35-.14.04c-5.9 1.83-10.01-5.39-5-9.13l.12-.08 10.07-6.57c2.16-1.58 4.02-2.47 5.67-3.26 3.05-1.46 5.26-2.52 7.4-8.79 1.22-3.7 2.22-7.1 3.16-10.29 3.96-13.45 6.9-23.42 18.43-32.99 1.03-.85 2.06-1.53 3.01-2.15 1.97-1.3 3.4-2.23 3.2-5.23-.4-6.19.18-11.8 1.52-16.85a42 42 0 0 1 6.83-14.3c.53-.72 1.14-1.92 1.6-3.24.37-1.05.61-2.12.6-2.97-.36-20.41 17.24-26.4 31.54-31.28 1.66-.56 3.27-1.1 4.4-1.51 3.52-1.27 6.55-2.52 8.53-4.44 1.74-1.7 2.75-4.07 2.68-7.76a28 28 0 0 1-2.26-5.28c-.46-1.45-.88-2.2-1.24-2.56l-.08-.06c-2.83.18-5.05-1.57-6.57-4.13-.9-1.49-1.55-3.26-1.94-5.03a16 16 0 0 1-.33-5.13c.27-2.45 1.32-4.38 3.26-5.07q.31-.1.38-.19.08-.1-.01-.65a36 36 0 0 1-.52-6.45c.09-6.22 2.04-11.09 5.2-14.63 3.17-3.56 7.51-5.72 12.4-6.54q2.18-.37 4.52-.37h.93Zm69.53 155.82-.3-.01c-1.89-.2-6.54-1.44-11.02-3.88q-.59-.31-1.16-.66.47 1.05.91 2.18.98 2.47 1.8 4.88c5.36 15.66 11.26 21.5 17.2 27.38 3.53 3.48 7.07 6.99 10.57 12.42-1.46-6.72-4.95-13.1-7.79-18.26-4.2-7.65-8.39-14.63-10.2-24.05M147.52 400.1q-.24 1.71-.52 3.38a62 62 0 0 1-1.18 5.6c-1.4 5.23-2.75 10.32-1.17 13.66 1.56 3.3 6.26 5.46 17.17 5.46q2.08 0 3.86-.3c1.8-.3 3.32-.83 4.33-1.6a2.8 2.8 0 0 0 1.22-2.3h-.01q0-.36-.06-.69c-.62-3.68-2.8-6.32-5.13-9.14-3.21-3.9-6.67-8.07-7.67-15.64-1.76.72-3.77.74-5.77.76-1.88.02-3.75.04-5.07.81ZM124.75 63.55q-2.83.02-5.26-.7a41 41 0 0 1 4.26 10.36 80 80 0 0 1 2.08 10.12c.5-3.24 1.18-6.6 2.01-9.8a58 58 0 0 1 4.07-11.43 16 16 0 0 1-7.16 1.44m2.97 149.29-.15.06c1.33 3.82 2.32 11.55 3.16 18.58l.26-1.46c1.92-9.9 6.39-18.48 12.59-26.27-5.77 4.2-11.54 7.86-15.86 9.09Zm1.34-131.06.87-1.18c2.52-3.36 7.07-9.42 8.47-14.89a16 16 0 0 1-2.87-4.08c-1.9 3.04-3.55 7.63-4.85 12.63-.63 2.46-1.18 5.01-1.62 7.52Zm-1.72 22.95c.25 4.03.93 7.75 2 10.3l.02.06c.96 2.3 2.8 4.54 5.65 5.98 2.25 1.14 5.16 1.78 8.8 1.58l.16-.01.6-.05c4.15-.35 9.69-2.65 14.77-5.63 4.83-2.84 9.2-6.26 11.56-9.2q.3-.44.61-.86a31 31 0 0 1-8.83-8.5 25.3 25.3 0 0 1-4.16-15.82 42 42 0 0 0-14.47-1.45 31 31 0 0 0-13.75 4.29c-3 4.47-3.28 14.25-2.96 19.3Zm50.34 38.8.06.08c1.83 2.4 4.43 4.3 7.09 5.74q1.4.76 2.77 1.36c-4.48-4.34-7.82-9.7-10.2-15.23-3.74-8.66-5.17-17.84-5.06-24.4-2.7 5.08-4.27 12.76-5.38 19.68 1.43.3 3.13 1.93 5.48 5.42l5.01 7.05zM91.95 75.89c.05 1.4.27 2.38.5 3.35l.1.44a45 45 0 0 1 15.15-1.47c3.48.28 6.9 1.02 10.15 2.3-2.4-3.28-5.53-7.88-7.1-12.47-2.43 1.92-5.52 3.18-9 4.43-1.7.62-3.06 1.08-4.45 1.55q-2.64.89-5.35 1.87m11.53 308.68c-.82-.26-2.1-.42-3.5-.6-2.3-.29-4.84-.6-6.85-1.65q.16 1.6.28 3.25v.42c2.37.28 3.91 1.12 5.48 1.98 1.3.72 2.63 1.45 4.6 1.72a122 122 0 0 1-.01-5.12Zm9.63-318.88c1.38 5.47 5.95 11.55 8.48 14.93q.6.81 1.08 1.47a75 75 0 0 0-1.75-8.1c-1.46-5.22-3.42-9.55-5.79-12.1a12 12 0 0 1-2.02 3.8Zm-54.9 74.6q.26 6.03-.72 11.9c6.45-4.42 10.95-10.97 13.93-17.87 3.96-9.18 5.2-18.9 4.73-25.07l-1.82 1.06c-8.56 4.98-13.38 7.78-15.26 14.6a49 49 0 0 0-.85 13.26q.07 1.17-.01 2.13Zm26.35-9.52c-1.11-6.92-2.7-14.6-5.39-19.69.12 6.57-1.31 15.75-5.05 24.4a47 47 0 0 1-10.21 15.24q1.36-.6 2.78-1.36c2.65-1.44 5.26-3.34 7.09-5.74l.06-.07.22-.31 5.01-7.05c2.35-3.5 4.06-5.12 5.49-5.42Zm5.15 13.48c.4-3.91.13-8.36-.13-12.7-.28-4.57-.56-9.01-.04-12.74a61 61 0 0 1-5.58-3.87c2.74 8.09 4.3 20.17 5.75 29.3ZM68.78 99.39q1.7-2.4 3.52-4.65c5.24-6.47 11.27-11.8 17.43-14.19l-.15-.66c-.2-.9-.41-1.78-.52-2.92-10.15 4.02-19.73 9.91-20.28 22.42m44.3 203.75c-.77 1-1.66 1.9-2.62 2.88-3.45 3.53-7.96 8.13-10.2 22.99 1.56-3.6 3.38-6.52 5.2-9.47 1.59-2.57 3.19-5.15 4.6-8.21.38-1 .76-1.9 1.14-2.8.7-1.68 1.39-3.3 1.87-5.4M87.91 184.5c.76.49 1.73 1.32 3.06 2.46l.17.15c1.88 1.37 4.26 3.26 6.95 5.38 5.58 4.42 12.48 9.87 18.46 13.59-13.29-15.68-14.72-38.67-15.37-49l-.07-1.1c-2.52.44-5.14.38-7.4-.08q-1.38-.27-2.56-.74c.2 2.06.3 3.93.31 5.72.06 5.97-.84 10.85-2.6 19.06zm21.2 134.7-1.16 1.88c-3.93 6.35-7.81 12.63-8.93 26.35l.05 1.04q.02.42-.18.76c-.32 5.28-.26 11.6.33 19.35l.3 4.47.54 7.96.27.03c1.15.15 2.25.28 3.23.52.18-4.2.57-8.39 1.19-12.42a87 87 0 0 1 3.28-14.1c.11-.35.6-1.82 1.07-3.18 2.95-8.72 3.94-11.67 1.58-23.54l-.28-1.39a70 70 0 0 1-1.3-7.73Zm52.67-238.65c6.16 2.38 12.18 7.72 17.43 14.19a86 86 0 0 1 3.51 4.65c-.57-12.16-10.01-18.48-20.25-22.88a20 20 0 0 1-.54 3.38zM67.33 107c-.5 1.16-1.1 2.2-1.64 2.93l-.2.28a95 95 0 0 0-1.7 3.23c2.44-1.82 5.44-3.57 9.06-5.67l3.78-2.22c4.02-2.39 7.4-5.24 9.77-8.77a22.4 22.4 0 0 0 3.69-13.2c-5.4 2.3-10.76 7.16-15.52 13.02a90 90 0 0 0-7.24 10.4m26.03 291.6c-.53 8.32-4.66 13.4-8.27 17.84-2.03 2.5-3.87 4.75-4.48 7.07a3 3 0 0 0-.11.82c0 .67.31 1.24.85 1.71a8 8 0 0 0 3.25 1.53c1.58.42 3.44.63 5.4.63 14.14 0 17.69-3.78 17.69-8.98 0-2.9-.93-6.39-1.88-9.93l-.06-.21q-.36-1.34-.64-2.78-.28-1.4-.5-2.95-.2-1.3-.35-2.58l-.06-.54c-1.32-.9-3.3-.92-5.28-.94-1.92-.02-3.86-.05-5.56-.68Zm-5.9-211.84-.02.09.08-.02zM134.2 53.84l.05-.1q.99-1.76 1.8-4.29c.72-2.23 1.55-3.58 2.4-4.4a4.3 4.3 0 0 1 3.43-1.3c.9.06 1.77-.77 2.49-1.96.63-1.06 1.1-2.36 1.4-3.7.28-1.33.38-2.63.26-3.7-.09-.79-.2-1.33-.32-1.37a5 5 0 0 1-2.63-1.95 5.1 5.1 0 0 1-.65-3.81q.52-3.06.47-5.67c-.07-5.06-1.6-8.96-4.07-11.73S132.92 5.4 129 4.75a24 24 0 0 0-4.24-.32h-.05a24 24 0 0 0-4.23.32c-3.91.66-7.36 2.35-9.82 5.11-2.48 2.77-4 6.67-4.08 11.73a32 32 0 0 0 .47 5.67 5.1 5.1 0 0 1-.65 3.81 5 5 0 0 1-2.62 1.95c-.12.04-.24.58-.33 1.36-.12 1.08-.02 2.38.27 3.71.3 1.34.77 2.64 1.4 3.7.71 1.2 1.58 2.02 2.49 1.97a4.3 4.3 0 0 1 3.42 1.29c.85.82 1.68 2.17 2.4 4.4a23 23 0 0 0 2.17 4.92 11 11 0 0 0 2.5 2.86c1.78 1.37 4 1.86 6.64 1.86s4.85-.5 6.64-1.86c1.03-.8 1.97-1.9 2.8-3.4ZM102.22 290.9l.01-.02c14.58-25.15 18.47-44.5 15.4-60.32-3.05-15.78-13.05-28.17-26.24-39.4l-1.65-1.4q.26.67.5 1.42c4.12 12.1 3.9 29.74 3.67 47.59-.25 19.8-.5 39.87 5.18 52.38a27 27 0 0 1 1.13 3.09q.4-.4.8-.88c.24-.63.6-1.45 1.2-2.46Zm-8.74 98.04a208 208 0 0 1 0 6.35c1.42 1 3.45 1.02 5.47 1.04 1.7.02 3.39.04 4.92.5q-.18-2.07-.28-4.17c-2.74-.27-4.44-1.21-6.12-2.13-1.2-.66-2.37-1.3-4-1.59Zm29.92-176.23c-4.27-1.34-9.87-4.9-15.46-8.97 6.2 7.79 10.67 16.37 12.58 26.27l.13.65a266 266 0 0 1 2.73-17.83zm51.96-103.49c-.47 6.18.78 15.9 4.74 25.08 2.97 6.9 7.48 13.45 13.93 17.87q-.98-5.87-.73-11.9-.08-.95 0-2.12.43-7.22-.86-13.27c-1.88-6.81-6.7-9.62-15.25-14.6zm3.3-1.47c3.62 2.1 6.62 3.85 9.06 5.67a95 95 0 0 0-1.7-3.23l-.2-.28a16 16 0 0 1-1.64-2.93 91 91 0 0 0-7.24-10.4c-4.75-5.86-10.11-10.72-15.52-13.02v.4c0 5.1 1.36 9.3 3.7 12.8 3.54 5.29 8.33 7.95 13.54 10.99m-16.68 11.03c.51 3.74.24 8.18-.04 12.75-.27 4.33-.54 8.79-.13 12.7 1.45-9.14 3-21.22 5.75-29.31a61 61 0 0 1-5.58 3.86m-3.2 24.6a54 54 0 0 1-.11-4.72q-1.38.45-2.81.75-1.8.36-3.64.48.01.92-.03 1.5-.02.42-.12.77-.04 1.06-.13 2.07a18 18 0 0 0 6.84-.85Zm0-7.9q.1-2.06.22-4.12l.03-.46a47 47 0 0 1-3.86 1.42c-1.42.45-2.74.77-3.8.94.32 1.3.53 2.56.66 3.7a26 26 0 0 0 3.25-.43q1.78-.35 3.49-1.04Zm5.28 51.26-.07.07.09.02zm-29.1 19.33c5.98-3.72 12.87-9.17 18.46-13.59 2.68-2.12 5.07-4.01 6.94-5.38l.17-.15c1.34-1.14 2.3-1.97 3.07-2.46l-.96-4.57c-1.75-8.2-2.65-13.08-2.6-19.06.02-1.79.12-3.65.31-5.72q-1.18.47-2.55.75c-2.26.45-4.88.52-7.41.08l-.07 1.1c-.64 10.32-2.08 33.32-15.37 49Zm24.02-126.42.1-.43c.25-1.1.5-2.2.5-3.92a245 245 0 0 0-6.93-2.58 117 117 0 0 1-10.1-3.98q-.76-.35-1.7-.98c-1.53 4.67-4.74 9.39-7.19 12.73a36 36 0 0 1 10.16-2.3c5.07-.42 10.27.15 15.16 1.46m.24 47.96c.12-2.57.17-5.03-.02-7.21-4 2.2-8.19 3.94-11.84 4.72 1.4 1.57 2.4 3.42 3.13 5.3.9-.1 2.24-.42 3.8-.91a45 45 0 0 0 4.93-1.9Zm1.5 24.09a20 20 0 0 1-1.6-5.35q-1.82.54-3.58.73c-1.41.15-2.75.17-3.88.08q-.38 3.12-1.07 5.87c2.25.43 4.61.4 6.64-.02a10 10 0 0 0 3.5-1.31Zm-56.57-26.58c-3.64-.78-7.83-2.53-11.83-4.72-.2 2.18-.15 4.64-.02 7.2a45 45 0 0 0 4.93 1.91c1.56.5 2.9.81 3.8.9a17 17 0 0 1 3.12-5.29m-4 8.14a27 27 0 0 1-3.8-.94 47 47 0 0 1-3.87-1.42l.03.46q.14 2.06.23 4.13 1.72.69 3.5 1.04 1.58.32 3.24.43c.13-1.14.34-2.4.66-3.7m.78 19.77q-.69-2.76-1.07-5.87a21 21 0 0 1-7.47-.8 20 20 0 0 1-1.6 5.34 10 10 0 0 0 3.5 1.31c2.03.41 4.39.45 6.64.02m-1.36-8.8q-.08-1.02-.12-2.07-.1-.35-.13-.76-.03-.59-.03-1.51a29 29 0 0 1-3.63-.48q-1.44-.3-2.81-.75.05 2.41-.12 4.72a18.02 18.02 0 0 0 6.84.85m-72 53.18c1.92.15 3.8.69 5.44 1.6q.9.52 1.7 1.17a65 65 0 0 1 4.22-12.11 66 66 0 0 1-11.37 9.34Zm93.65-112c-5.2-2.54-7.8-3.8-13.75-4.3-4.85-.39-9.82.18-14.48 1.46q.05.63.05 1.38c0 5.73-1.54 10.47-4.2 14.45A31 31 0 0 1 80 106.9q.32.4.62.86c2.35 2.94 6.72 6.36 11.56 9.2 5.08 2.98 10.62 5.28 14.78 5.63l.75.06c3.64.2 6.54-.44 8.8-1.58a11.8 11.8 0 0 0 5.67-6.04c1.06-2.54 1.74-6.25 2-10.26 0-5.5.3-14.49-2.96-19.35m119.23 132.83q-1.06 1.28-2.43 2.38l6.06 13.22c.57.86 1.17 1.14 1.68 1.08q.42-.06.86-.34.51-.31.89-.76c.49-.59.79-1.2.63-1.48zm-139.39 96.23q-1.02.31-2.06.29a5 5 0 0 1-1.9-.43q.15 1.35.26 2.75v.02q.48 3.6.76 7.2a51 51 0 0 1 2.94-9.83m122.6-120.8a35 35 0 0 1-1.22-3.07 552 552 0 0 1-2.46-7.71c-4.42-14.13-7.6-24.31-18.87-33.66-.93-.77-1.8-1.34-2.6-1.87q-1.23-.78-2.23-1.55a61 61 0 0 0 8.45 27.15 66.5 66.5 0 0 0 18.92 20.7ZM14.6 220.63a16 16 0 0 1-2.44-2.38l-7.69 14.1c-.79 1.61 2.95 4.1 4.06 1.5zm219.65 2.41q-1.06.55-2.2 1.02l4.88 12.97q.17.45.26.9c.63 1.5 1.43 2.14 2.16 2.2q.37.03.72-.11.37-.16.64-.46c.41-.47.57-1.2.2-1.99zm-200.16 3.58q-1.23.05-2.54-.03l-3.5 12.02c-.46 1.56.8 1.22 1.83.46.8-.58 1.55-1.67 2.02-3.4q1.37-5.07 2.19-9.05Zm182.18-24.78q1.41-1.74 3.33-2.81a13 13 0 0 1 4.51-1.5c-4.22-2.72-8.2-6-11.8-9.72 1.96 4.35 3.56 9.1 3.96 14.03ZM30.41 189.85q0 .08-.04.14l-.17.53-.03.07q-.36 1.05-.72 1.93a67 67 0 0 0 17.34-19.55c4.82-8.24 7.9-17.56 8.45-27.15a31 31 0 0 1-2.23 1.55c-.8.53-1.67 1.1-2.6 1.88-10.5 8.7-13.27 18.11-17.01 30.81q-1.33 4.62-2.99 9.8Zm197.44 35.63q-1.17.3-2.33.54l3.42 11.75q.12.42.18.81c.58 1.15 1.28 1.63 1.91 1.67q.38.02.74-.12.38-.15.65-.42c.32-.32.5-.74.36-1.11zm-73.25 88.66q-.85.34-1.78.4a7 7 0 0 1-2.48-.33 51 51 0 0 1 3.06 10.1q.24-3.13.64-6.27v-.08l.08-.58q.22-1.62.48-3.24m4.91-8.42c-.33 1.13-.77 2.8-1.24 4.94a95 95 0 0 0-1.31 7.68v.02c-1 7.8-1.19 15.84-1.35 22.54l-.11 4.48q.05 1.84.06 3.8c.32 5.38.25 11.8-.34 19.62-.07.88-.17 2.45-.3 4.44l-.5 7.29c2.15-.48 4.02-1.36 4.6-3.36.82-5.7 1.98-11.03 3.12-16.29 2.55-11.74 5.02-23.09 3.31-36.96-2.12-13.44-2.74-19.7-2.22-26.96a40 40 0 0 0-3.72 8.75ZM27.1 226.02q-1.17-.23-2.34-.54l-4.92 13.11c-.41 1.1 2.81 2.81 3.66 0q.06-.4.18-.82zm67.35 91.47-.03-.18c-1.03-7.54-2.84-14.8-6.13-20.35.52 7.26-.1 13.53-2.23 26.96-1.7 13.87.77 25.22 3.31 36.96 1.15 5.26 2.3 10.6 3.13 16.3.58 2 2.45 2.87 4.6 3.35l-.8-11.73a147 147 0 0 1-.35-19.62q.02-1.95.07-3.8l-.12-4.48c-.16-6.95-.36-15.34-1.45-23.41Zm59.35-21.35q.22.07.46.17l.67.21.27.13q1.06.23 2.06.06 1.48-.27 2.82-1.25a11 11 0 0 0 1.49-1.3c.85-.88 1.62-1.95 2.29-3.11.38-2.92.9-6.22 1.52-10.25l1.12-7.33.86-5.51c3.43-22.08 5.6-36.06-2.61-77.75q-.34.88-.7 1.93c-3.95 11.64-3.73 29.01-3.51 46.6.25 20.14.5 40.55-5.44 53.63q-.53 1.21-.84 2.22-.28.84-.57 1.5zm-6.48 3.2-.38.23a4 4 0 0 0-2.03 2.75c-.22 1.2.08 2.63.88 4.21q.21.42.48.86.43.55.88 1.15 1.36 1.48 2.77 2.29 1.47.84 2.73.78 1.11-.06 1.95-1 .71-.8 1.17-2.3a63 63 0 0 1 1.46-5.1c.36-1.05.03-1.8-.63-2.38a10 10 0 0 0-3.41-1.75l-.17-.07a8 8 0 0 0-5.7.34Zm-2.57 10.93q-.75-.83-1.43-1.82a48 48 0 0 0-2.27-2.43 32 32 0 0 1-2.6-2.88c.48 2.1 1.16 3.71 1.87 5.39.37.9.76 1.8 1.13 2.8 1.42 3.06 3.01 5.64 4.6 8.2a72 72 0 0 1 5.2 9.48c-1.5-9.89-3.98-15.23-6.5-18.74M13.71 215.42l.16.2c1.82 2.7 5.16 4.77 8.89 6.14a30 30 0 0 0 11.9 1.9q.37-2 .6-3.73a66 66 0 0 0 .69-10.1v-.05c.02-1.78-.33-3.3-.94-4.56a8.2 8.2 0 0 0-3.44-3.62 10.5 10.5 0 0 0-5.01-1.28c-1.71-.02-3.46.34-5.06 1.08l-1 .48c-1.47.7-3.12 1.49-4.98 2.86l-.1.07-10.05 6.55c-1 .75-.27 2 .79 1.4l3.53-2.35c.82-.54 1.59-.72 2.28-.65.8.08 1.4.44 1.86.97.34.39.55.86.66 1.33.2.82.05 1.84-.25 2.39zm82.74 81.2q.3-.11.64-.21l.14-.05q.3-.12.6-.28-.3-.65-.57-1.5-.31-.99-.84-2.2v-.01c-5.95-13.08-5.7-33.5-5.44-53.62.22-17.6.44-34.97-3.52-46.61q-.36-1.05-.7-1.93c-8.2 41.69-6.03 55.66-2.6 77.75l.85 5.51c.66 4.37.9 5.92 1.13 7.33.62 4.03 1.14 7.33 1.52 10.25a16 16 0 0 0 2.37 3.2q.68.68 1.4 1.2 1.36 1 2.83 1.25 1.06.19 2.19-.09m11.45 1.2.06.02q.3.14.61.24c.8.24 1.62.28 2.38.02 1.51-.52 2.88-2.25 3.5-5.85.49-5.06.86-10.02 1.22-14.98q.34-4.64.72-9.35c-2.69 7.51-6.5 15.6-11.57 24.37-.58 1.46.15 3.16 1.42 4.38q.68.65 1.5 1.07zm-87.35-73.76q-1.12-.47-2.19-1.02l-6.66 14.53c-.98 2.13 2.05 4.33 3.72.37q.1-.45.26-.91zm197.4-.4c3.46.24 7.88-.41 11.9-1.9 3.73-1.37 7.07-3.44 8.9-6.15q.07-.1.15-.2l-.53-.96a3.8 3.8 0 0 1-.25-2.39c.11-.47.32-.94.66-1.33a2.7 2.7 0 0 1 1.86-.97c.7-.07 1.46.1 2.28.65l3.53 2.34q.55.08.88-.15.2-.14.3-.31.06-.15.07-.3 0-.28-.46-.63l-10.04-6.55-.1-.07c-1.87-1.37-3.52-2.16-4.98-2.86l-1-.48c-1.6-.74-3.35-1.1-5.07-1.08-1.78.01-3.52.44-5.01 1.28a8.2 8.2 0 0 0-3.44 3.62 10 10 0 0 0-.94 4.56v.05l.01.78c0 2.31.12 5.28.68 9.32q.23 1.72.6 3.72m-112.03 82.92q.43-.57.73-1.15.78-1.61.46-2.98a4.4 4.4 0 0 0-1.66-2.42 7 7 0 0 0-1.07-.68c-1.54-.68-3.4-1.1-6.45-.12l-.63.2a6 6 0 0 0-2.4 1.25c-.42.45-.52 1.14-.13 2.27.22.63.77 2.59 1.32 5.26v.02a7 7 0 0 0 1.28 2.72c.51.6 1.1.86 1.72.88a4.6 4.6 0 0 0 2.35-.7c1.08-.62 2.1-1.55 2.92-2.57q.78-1.09 1.56-1.98M37.14 203l.03.03a21 21 0 0 1 1.36-3.08c2.67-5.01 4.99-8.66 7.67-11.93 2.66-3.26 5.65-6.1 9.65-9.53 5.58-4.76 6.78-8.38 9.34-16.1.5-1.52 1.04-3.15 1.36-4.06q.81-2.4 1.79-4.88.44-1.13.92-2.18l-1.17.66c-4.48 2.44-9.13 3.67-11.02 3.88q-.15.02-.3.01a66 66 0 0 1-7.45 18.64l-.06.1c-.6 1.13-1.11 2.05-1.66 3.05-3.61 6.56-8.82 16.01-10.42 25.23zm89.98-78.54v8.82c3.98-.8 9-.53 13.7.94 3.05.95 5.98 2.42 8.42 4.44-.24-3.8-1.41-9.92-5.69-13.05-2.65.1-4.97-.2-7-.8-1.77-.46-3.36-.68-4.74-.75-1.86-.09-3.32.11-4.27.35q-.21.05-.42.05m93.94 102.13q-1.31.07-2.54.03.82 3.98 2.19 9.05c.66 2.42 1.88 3.6 2.99 3.88q.39.09.7.04a1 1 0 0 0 .3-.1l.03-.07-.02-.27-.03-.14zm-93.94-90.36v12.25c4.7-.74 9.06-.52 12.74.24 3.25.68 6 1.79 8.01 3.05a53 53 0 0 0 1.24-9.17c-2.35-2.64-5.65-4.47-9.17-5.57-4.31-1.35-8.9-1.58-12.46-.83q-.18.05-.36.03m0 36.1v37.32c15.74-12.63 18.93-35.14 19.95-48.07q-.45.72-.95 1.39c-3.95 5.33-9.99 8.5-18.8 9.35zm9.95 119.92c.61 3.6 1.98 5.33 3.5 5.85.76.26 1.58.22 2.37-.02a6 6 0 0 0 2.33-1.41c1.27-1.22 2-2.92 1.43-4.38a150 150 0 0 1-11.58-24.37q.39 4.7.72 9.34c.37 4.97.73 9.93 1.22 15Zm11.05 97.42c1.92-.29 3.22-1 4.5-1.7 1.57-.87 3.11-1.71 5.48-2v-.41q.12-1.65.28-3.25c-2 1.04-4.54 1.36-6.85 1.65-1.4.18-2.68.34-3.5.6l.02.56.02 1.43zm1.16-98.78.01.02c.6 1.01.96 1.83 1.2 2.46q.4.47.8.88.06-.27.18-.61c.25-.74.55-1.61.95-2.49 5.68-12.5 5.43-32.57 5.18-52.37-.22-17.86-.45-35.49 3.66-47.59l.51-1.42-1.65 1.4c-13.2 11.23-23.2 23.62-26.24 39.4-3.07 15.83.82 35.17 15.4 60.32Zm-25.1-121.53v-17.94h-.08a33 33 0 0 0-11.85.18c-3.36.7-6.06 1.87-7.77 3.14q1.22 3.69 3.27 6.48c3.4 4.58 8.67 7.34 16.42 8.14m23.76 212.2c.98-.24 2.08-.38 3.23-.52l.27-.03.54-7.96.3-4.47c.59-7.75.65-14.07.33-19.35q-.19-.35-.18-.77l.05-1.03c-1.12-13.73-5-20-8.93-26.35l-1.15-1.88c-.25 2.7-.83 5.52-1.3 7.73l-.28 1.38c-2.36 11.88-1.36 14.83 1.58 23.54l1.07 3.18a87 87 0 0 1 3.28 14.1c.62 4.04 1.01 8.22 1.2 12.42Zm-20.82-230.13v17.96c7.87-.78 13.21-3.55 16.64-8.17a23 23 0 0 0 3.27-6.48c-1.71-1.27-4.4-2.44-7.77-3.14-3.41-.71-7.47-.9-11.85-.19q-.15.03-.3.02Zm-2.95 58.04V172.3c-8.8-.85-14.83-4.02-18.78-9.34q-.5-.67-.94-1.4c1 12.87 4.17 35.23 19.72 47.9m0-61.02v-12.22l-.14-.03c-3.56-.75-8.15-.52-12.46.83-3.52 1.1-6.82 2.93-9.17 5.57q.28 5.04 1.24 9.17a25 25 0 0 1 8-3.05c3.64-.75 7.92-.98 12.53-.27m0-15.22v-8.78l-.2-.03c-.95-.25-2.4-.44-4.27-.36-1.38.07-2.97.29-4.74.76-2.02.6-4.35.9-7 .79-4.27 3.13-5.44 9.25-5.68 13.05a25 25 0 0 1 8.42-4.44 29 29 0 0 1 13.47-.99m23.77 263.52c1.45-.37 3.04-.4 4.63-.4 2.03-.03 4.08-.05 5.5-1.07q-.06-1.22-.06-2.64-.01-1.67.02-3.69c-1.62.28-2.8.93-4 1.59-1.63.9-3.3 1.81-5.92 2.1a69 69 0 0 1-.17 4.11Z" style="fill:#4a4337"/>
  <path d="M478.09 201.17a222 222 0 0 1-19.8-26.59c-4.77-7.65-8.75-15.5-10.73-22.56-1.62-5.76-4.25-11.66-6.53-16.51-.72 7.41-2.16 13.19-3.46 18.39-1 3.98-1.91 7.61-2.3 11.28-.63 5.86.45 11.98 2.26 22.17.67 3.73 1.43 8.01 2.32 13.6 1.85 11.54 3.5 23.33 3.67 38.2.17 14.84-1.13 32.68-5.18 56.27-2.19 12.71-1.14 18.42.44 27.12.54 2.96 1.14 6.25 1.7 10.11.66 4.7 1.05 10.53.62 18.3-.42 7.7-1.64 17.34-4.19 29.72-1.1 5.33-.94 11.84.33 18.12 1.21 6.02 3.44 11.77 6.54 16.02a13.6 13.6 0 0 1 2.82 7.91q0 2.22-.93 4.16a9 9 0 0 1-2.78 3.33c-1.82 1.33-4.27 2.12-7.32 2.12-1.97 0-3.73.08-5.43.16-3.38.15-6.54.29-9.22-.14-5.38-.85-8.6-3.55-7.4-11.13 1.2-7.6.34-10.4-.44-12.89-.54-1.75-1.04-3.38-1-6.04.02-1.8.48-3.6.97-5.48.45-1.74.92-3.56.97-5.28a38 38 0 0 0-.29-5.64 58 58 0 0 0-1.01-5.74c-.66-2.92-1.52-5.96-2.4-9.1-3.24-11.43-6.79-23.98-3.17-40.24.48-2.16.59-4.34.5-6.27a23 23 0 0 0-.95-6.07c-3.63-8.88-3.54-13.25-3.4-19.07.11-5.57.27-12.58-3.27-27.04l-.01-.02a92 92 0 0 1-1.68-11 92 92 0 0 1-1.68 11l-.01.02c-3.54 14.46-3.39 21.47-3.27 27.04.13 5.82.22 10.19-3.41 19.06-1.22 3.1-1.18 9.05-.44 12.35a63 63 0 0 1 1.36 16.47c-.22 5.15-.94 9.96-1.7 14.56-1.32 8.06-2.78 13.83-4 18.62-2 7.95-3.31 13.13-2.04 21.53.5 3.24.02 5.47-.48 7.8-.58 2.76-1.2 5.68.43 11.14 1.95 6.52-.36 9.52-4.86 10.87-3.2.96-7.5.8-12.02.65-1.6-.06-3.22-.12-5.11-.12-3.06 0-5.5-.8-7.32-2.12a9 9 0 0 1-2.79-3.33 9.6 9.6 0 0 1-.92-4.16c0-2.56.93-5.33 2.8-7.9a37 37 0 0 0 5.06-10.32 53 53 0 0 0 2.45-12.92c.37-5.84-.61-10.92-1.66-16.34-.35-1.85-.72-3.74-1.06-5.84a162 162 0 0 1-2.24-22.1c-.15-6 .21-10.72.77-14.65.55-3.86 1.15-7.15 1.69-10.11 1.59-8.7 2.63-14.41.44-27.12-4.05-23.59-5.35-41.43-5.18-56.27.17-14.87 1.82-26.66 3.67-38.2.9-5.59 1.66-9.87 2.32-13.6 1.8-10.19 2.9-16.3 2.27-22.17-.41-3.8-1.57-8.88-2.86-14.52-1.04-4.58-2.17-9.52-3.07-14.52-2.4 5.1-4.73 10.07-6.36 15.88a75 75 0 0 1-6.77 16.48 76 76 0 0 1-6.4 9.53c-1.41 1.83-2.84 3.5-4.3 5.22-3.4 3.97-7.06 8.24-10.94 15a2 2 0 0 1-.35.94q-.69 1.04-1.27 2l-.02.04-.13.22a35 35 0 0 0-2.5 5.05 16 16 0 0 0-1.29 5.71c0 2.48-.12 5.65-.7 9.88-.6 4.23-1.63 9.51-3.46 16.23-1.14 4.2-3.72 6.34-6.14 6.97q-1.36.35-2.58.13a5 5 0 0 1-1.95-.78 6.1 6.1 0 0 1-6.22 1.07 6 6 0 0 1-2.01-1.26 6 6 0 0 1-3.51 1.55q-1.51.13-2.83-.43a6.2 6.2 0 0 1-3.72-4.72 6.63 6.63 0 0 1-3.41-.99 8 8 0 0 1-1.98-1.72c-1.55-1.87-2.2-4.4-1.11-6.4l7.25-13.28-.14.04a5.6 5.6 0 0 1-4.87-.63 5.3 5.3 0 0 1-1.74-1.91 5 5 0 0 1-.6-2.57 5.2 5.2 0 0 1 2.23-3.98l.12-.08 10.03-6.54c2.08-1.53 3.85-2.38 5.4-3.13q.87-.4 1.63-.81a9 9 0 0 0 3.06-2.46c1-1.3 1.97-3.26 2.9-6.46l.26-.93.53-1.98c1.52-8.52 3.49-16.61 6.44-23.7 3.03-7.25 7.08-13.44 12.71-17.96 3.1-2.48 3.1-5.76 3.08-9.88 0-3.95-.02-8.54 2.11-14.09 1.13-2.93 1.86-4.67 2.45-6.08 1.86-4.43 2.39-5.68 3.04-13.14a30.4 30.4 0 0 1 7.42-18.28c4.01-4.64 9.26-8.16 14.95-11.26 3.2-1.76 6.34-3.28 9.47-4.8 4.22-2.06 8.43-4.11 12.18-6.35a17 17 0 0 0 4.07-3.43c1.8-2.1 2.98-4.54 3.4-6.96.4-2.3.12-4.57-1-6.45q-.48-.78-1.14-1.47c-2.34-.1-4.1-1.62-5.28-3.8a14 14 0 0 1-1.32-3.86 17 17 0 0 1-.27-4.07c.15-2.48.93-4.7 2.4-5.97q-.08-1.05-.08-2.06c0-5.4 1.4-10.8 4.47-15.05 3.11-4.34 7.9-7.46 14.6-8.2a28 28 0 0 1 6.1 0c6.7.74 11.48 3.86 14.6 8.2 3.06 4.25 4.46 9.64 4.46 15.05q0 1-.07 2.06c1.47 1.26 2.25 3.5 2.4 5.97.08 1.32-.02 2.72-.27 4.07-.27 1.37-.7 2.7-1.33 3.85-1.17 2.2-2.93 3.72-5.28 3.81q-.66.69-1.12 1.47a9.3 9.3 0 0 0-1.02 6.45 15 15 0 0 0 3.41 6.96 17 17 0 0 0 4.07 3.43c3.74 2.24 7.95 4.29 12.18 6.34 3.13 1.53 6.26 3.05 9.47 4.8 5.68 3.11 10.94 6.63 14.95 11.27a30.4 30.4 0 0 1 7.41 18.28c.28 3.07.32 5.16.35 6.78.06 3.25.08 4.28 2.76 11.26 1.72 4.47 2.6 7.9 3.43 11.14 1.33 5.18 2.53 9.88 7.12 17.8 3.47 5.99 6.56 12.06 9.37 18.75 2.8 6.66 5.33 13.96 7.7 22.44 2.2 6.65 4.42 7.71 7.52 9.2 1.66.78 3.5 1.67 5.65 3.25l10.04 6.54.12.08a5.2 5.2 0 0 1 2.22 3.98c.04.9-.18 1.79-.6 2.57q-.62 1.16-1.74 1.91c-1.29.86-3 1.2-4.87.63l-.13-.04 7.24 13.28c1.1 2 .44 4.53-1.11 6.4a8 8 0 0 1-1.97 1.72 6.7 6.7 0 0 1-3.42.99 6.1 6.1 0 0 1-3.71 4.72q-1.33.55-2.83.43a6 6 0 0 1-3.51-1.55 6.4 6.4 0 0 1-4.63 1.68 6 6 0 0 1-3.6-1.49q-.89.58-1.96.78-1.22.21-2.58-.13c-2.42-.63-5-2.77-6.14-6.97-1.82-6.72-2.86-12-3.45-16.23-.58-4.23-.7-7.4-.7-9.88a17.34 17.34 0 0 0-3.72-11.04Zm-169.2 26.98q-1.2.04-2.53-.03l-3.6 12.36-.03.15q0 .14-.02.26l.04.07q.08.06.28.1.33.06.71-.04c1.1-.28 2.32-1.45 2.98-3.86a154 154 0 0 0 2.17-9Zm-6.96-.6a36 36 0 0 1-2.32-.54l-4.9 13.06c-.15.38.02.8.35 1.1a2 2 0 0 0 1.38.55c.63-.04 1.33-.52 1.9-1.66q.06-.4.19-.8zm-6.51-1.95q-1.13-.47-2.18-1.01l-6.64 14.46c-.36.79-.2 1.51.2 1.98q.28.3.64.46.35.15.72.11c.72-.06 1.52-.7 2.15-2.19q.08-.45.26-.9zm-5.93-3.42q-1.37-1.1-2.43-2.37l-7.66 14.05c-.15.28.15.88.63 1.46q.38.46.89.77.43.28.85.33c.52.07 1.11-.21 1.68-1.08zm-.89-5.19.16.2c1.81 2.69 5.14 4.75 8.85 6.12 4 1.48 8.4 2.13 11.86 1.88q.35-2 .6-3.7a66 66 0 0 0 .68-10.11c.01-1.77-.33-3.28-.93-4.54a8.2 8.2 0 0 0-3.43-3.6 10.4 10.4 0 0 0-5-1.28 12 12 0 0 0-4.99 1.06l-1.28.62c-1.37.66-2.92 1.4-4.72 2.73l-.1.06-10 6.52q-.45.37-.45.64 0 .15.07.3.1.16.29.3.34.22.87.15l3.52-2.33a3.5 3.5 0 0 1 2.27-.65c.8.08 1.4.44 1.85.96q.5.61.66 1.33c.2.81.04 1.83-.25 2.38zm12.83-17.95c1.97.02 3.9.43 5.63 1.25 3.33-7.72 10.86-13.94 17.97-19.82 4.16-3.43 8.18-6.75 11-10.09q1.2-1.8 2.46-4.05a70 70 0 0 0 6.37-15.5q.23-.84.48-1.64l-1.01 1.6c-4.49 7.02-9.33 13.84-13.65 18.9a231 231 0 0 1-15.73 16.63c-4.29 4.1-8.48 7.8-12.36 10.95a15 15 0 0 1-1.16 1.77Zm8.14 2.84q1.6 1.32 2.65 3.24l.1-.23a40 40 0 0 1 2.92-5.87 86 86 0 0 1 9.7-14.68c-6.37 5.3-12.7 10.95-15.37 17.54m177.92 23.31c3.45.25 7.85-.4 11.85-1.88 3.72-1.37 7.04-3.43 8.86-6.12l.16-.2-.53-.96a3.8 3.8 0 0 1-.25-2.38q.15-.72.66-1.33a2.7 2.7 0 0 1 1.85-.96c.69-.06 1.45.1 2.27.65l3.51 2.33q.55.08.88-.15.2-.14.29-.3t.07-.3q.01-.28-.46-.64l-9.99-6.52-.1-.06a28 28 0 0 0-4.96-2.85l-1-.48c-1.6-.74-3.33-1.1-5.04-1.08-1.77.01-3.5.44-4.99 1.27a8.2 8.2 0 0 0-3.43 3.61c-.6 1.26-.95 2.77-.93 4.54v.05l.01.78c0 2.3.12 5.25.68 9.28q.23 1.7.59 3.7m22.4-5.38q-1.05 1.27-2.42 2.37l6.04 13.16c.56.86 1.16 1.15 1.67 1.08q.42-.07.86-.33.5-.31.88-.77c.48-.58.78-1.18.63-1.46zm-6.17 4.78q-1.06.55-2.18 1l4.85 12.92q.17.45.25.9c.63 1.49 1.43 2.13 2.15 2.2q.38.02.73-.12.35-.15.63-.46c.41-.47.57-1.2.2-1.98zm-6.37 2.42q-1.17.3-2.33.54l3.41 11.7q.12.42.18.8c.57 1.15 1.27 1.62 1.9 1.66q.38.02.74-.12.38-.15.65-.41c.32-.32.5-.74.36-1.11zm-6.76 1.1q-1.31.09-2.53.04a154 154 0 0 0 2.18 9c.65 2.42 1.88 3.58 2.98 3.87q.39.1.7.04a1 1 0 0 0 .29-.1l.03-.07-.01-.27-.04-.14zM414.5 361.17l.05.1.16.37.13.3a86 86 0 0 0 6.05 11.39c-.04-5.43.07-10.96.18-16.42.15-7.6.3-15.06.02-21.87-.56-13.4-.7-23.32-.45-32.37l.14-3.95q-.78 2.39-1.66 4.94c-2.04 5.98-4.43 13-7.06 23.54a27 27 0 0 1-.6 4.57 58 58 0 0 0-1.4 13.27q.15.27.17.61c.26 4.75 2.05 10.36 4.27 15.52Zm19.87 9.18c-.89 1.8-1.9 3.48-2.92 5.17-3.02 5-6.11 10.13-5.93 19.05v.13a89 89 0 0 1 .87 5.73 1.46 1.46 0 1 1-2.91.33l-.15-1.19q-.83-3.62-1.34-7.55c-.88-3.97-1.99-7.86-3.22-11.62a196 196 0 0 0-5.04-13.53l.84 3c.9 3.15 1.76 6.2 2.46 9.32q.72 3.14 1.1 6.19.38 3.08.3 6.28c-.07 2.21-.6 4.27-1.1 6.25-.43 1.62-.83 3.17-.85 4.44-.02 1.96.39 3.28.82 4.7.92 2.95 1.94 6.24.57 14.87-.66 4.18.98 5.64 3.74 6.08 2.23.36 5.18.23 8.34.09 1.89-.09 3.85-.18 5.62-.18 2.07 0 3.64-.47 4.72-1.25a4.4 4.4 0 0 0 1.4-1.67q.48-1 .48-2.26a9.2 9.2 0 0 0-1.95-5.3c-3.5-4.8-5.97-11.16-7.3-17.76-1.39-6.84-1.55-13.97-.33-19.87q1.03-5.03 1.78-9.45m-10.51 6.26q.15.03.32.03h.02c1.32-.02 2.85-1.14 4.42-3.14 1.78-2.27 3.49-5.59 4.9-9.67a67 67 0 0 0 3.3-16.59c.15-5.73-.2-10.23-.73-13.97-.28-1.99-.57-3.77-.85-5.42q0-.04-.02-.08c-2.03-10.07-5.02-16.72-7.62-22.52a91 91 0 0 1-3.77-9.28q-.17 3.34-.27 6.78c-.25 8.96-.11 18.83.45 32.18.28 6.86.13 14.38-.02 22.03-.14 6.56-.27 13.21-.13 19.65Zm-28.27-147.75c-3.03 4.02-7.28 4.77-11.46 5.5-1.55.27-3.1.54-4.5 1.01 4.47 8.05 7.49 17.4 9.43 27.24.92 4.6 1.6 9.32 2.08 14.07q.51-2.5 1.21-5.33c2.27-9.74 2.81-28.19 3.15-39.45zm-18.6 7.8c-1.38 1-2.46 2.57-3.22 5.08-.84 2.72-1.3 6.48-1.43 11.67l.02.39q0 .2-.03.39v.08c-.09 5.55.65 11.65 1.41 18.02.23 1.83.45 3.7.69 5.85q.16 1.5.24 2.89c1.24 8.73 3.18 14.44 5.65 21.69 1.5 4.4 3.2 9.36 5.03 15.88q.3-1.22.5-1.73l.02-.04c3.3-8.05 3.21-12.03 3.1-17.33-.06-2.56-.12-5.4.13-9.03-.28-9.11-1.16-18.41-2.91-27.3-1.9-9.62-4.85-18.72-9.2-26.5Zm-4.15 59.31c-1.01 3.12-2.33 6.08-3.77 9.28-2.6 5.8-5.59 12.45-7.63 22.52l-.01.08q-.43 2.46-.85 5.42a84 84 0 0 0-.74 13.92 68 68 0 0 0 3.31 16.64c1.41 4.09 3.12 7.4 4.9 9.67 1.55 1.98 3.07 3.1 4.38 3.14.17-6.47.12-12.94.06-19.36-.07-7.57-.13-15.06.17-22.35.56-13.35.7-23.21.45-32.18q-.1-3.44-.27-6.78m-8.85 13.6c.82-1.96 1.63-3.77 2.41-5.52 3.23-7.2 5.86-13.07 5.35-22.7-.36-2.57-.66-5.38-.9-8.56l-.02-.16c-.77-6.43-1.51-12.6-1.43-18.4l.02-.73q-.21-3.41-.84-6.2a52 52 0 0 0-4.89 12c-2.2 8-2.9 17.14-2.3 27.4q.6 3.88 1.3 7.98c1.06 6.2 1.4 10.81 1.3 14.9Zm9.46-73.57a10 10 0 0 1 2.14-1.92c2.46-1.63 5.23-2.12 8.03-2.6 6.27-1.1 12.73-2.24 13.25-19.46v-8.72c-.3-10.17-5.02-15.12-9.74-20.07-4.6-4.82-9.2-9.64-10.3-18.81-4.77 5.8-9.14 11.96-11.68 19.74a217 217 0 0 0-3.74 16.08l-.66 4.13c-1.7 15.57 1.9 22.45 5.49 29.29 1.16 2.2 2.31 4.41 3.3 6.88a48 48 0 0 1 3.9-4.54m-14.47 32.1a70 70 0 0 1 1.9-9.58 54 54 0 0 1 6.62-15.06c-1.07-3.14-2.46-5.8-3.85-8.45-2-3.82-4.01-7.65-5.2-12.83-.5 5.29-.82 10.89-.9 17.02-.09 8.44.3 17.9 1.43 28.9Zm64.12-32.24a50 50 0 0 1 4 4.83c1-2.53 2.18-4.78 3.36-7.03 1.95-3.73 3.91-7.47 5.02-12.62v-.08a69 69 0 0 0 .88-10.72q-.06-2.46-.35-5.3l-.75-4.7a217 217 0 0 0-3.74-16.08c-2.55-7.78-6.91-13.94-11.68-19.74-1.1 9.17-5.7 13.99-10.3 18.81-4.72 4.95-9.44 9.9-9.74 20.07v8.72c.52 17.22 6.98 18.36 13.24 19.45 2.81.5 5.58.98 8.04 2.6a10 10 0 0 1 2.02 1.79m6.01 7.82a57 57 0 0 1 6.43 14.72 72 72 0 0 1 2.1 10.18 254 254 0 0 0 1.47-29.38c-.07-6.1-.4-11.67-.89-16.93-1.18 5.14-3.18 8.94-5.17 12.74-1.43 2.72-2.85 5.43-3.93 8.67m6.21 42.74c.56-10.15-.33-19.25-2.6-27.22a56 56 0 0 0-4.68-11.55q-.6 2.8-.78 6.25v.34c.09 5.8-.65 11.96-1.43 18.4l-.02.15c-.23 3.18-.54 6-.9 8.55-.5 9.64 2.13 15.52 5.36 22.72q1.19 2.59 2.4 5.51c-.1-4.07.24-8.7 1.3-14.89q.74-4.25 1.35-8.26Zm-10.98-32.45v-.16c-.1-5.4-.58-9.28-1.44-12.07-.77-2.51-1.84-4.08-3.22-5.08-4.36 7.79-7.3 16.9-9.2 26.52a169 169 0 0 0-2.92 27.29c.26 3.64.2 6.48.14 9.03-.11 5.3-.2 9.28 3.1 17.33l.02.04q.2.51.5 1.73a291 291 0 0 1 5.02-15.88c2.47-7.25 4.42-12.96 5.66-21.7q.07-1.38.24-2.87c.24-2.17.46-4.02.68-5.86.77-6.37 1.5-12.47 1.42-18.01zm-18.8 22.7q.7-7.13 2.07-14.06c1.94-9.84 4.96-19.19 9.43-27.24a31 31 0 0 0-4.5-1.01c-4.18-.73-8.43-1.48-11.46-5.5l.1 3.04c.33 11.26.87 29.71 3.14 39.45q.7 2.85 1.21 5.33m-23.38 84.6.05-.1c2.23-5.16 4.01-10.77 4.27-15.52q0-.15.05-.3c.08-4.32-.26-8.84-1.31-13.58-2.26-10.15-4.27-18.13-7.67-28.11q-.87-2.55-1.66-4.94l.14 3.95c.25 9.05.11 18.97-.45 32.37-.3 7.27-.24 14.7-.17 22.22.05 5.53.1 11.1 0 16.7a83 83 0 0 0 6.46-12.02q.08-.15.13-.3zm2.29 2.1c-2.16 5.1-4.5 10.87-6.5 17.03a115 115 0 0 0-3.97 15.37q-.32 2.49-.74 4.98v.01l-.03.17q-.33 1.92-.72 3.83a1.46 1.46 0 1 1-2.86-.58q.37-1.88.7-3.74v-.01q.3-2.62.77-5.2l.1-.74c.16-8.87-2.93-13.99-5.93-18.97a69 69 0 0 1-2.98-5.29q.38 2.1.78 4.2c1.1 5.7 2.14 11.04 1.73 17.44a58 58 0 0 1-2.66 14.01 41 41 0 0 1-5.69 11.54 9.2 9.2 0 0 0-1.95 5.31q0 1.26.48 2.26.45.97 1.4 1.67c1.08.78 2.64 1.26 4.72 1.26 1.54 0 3.41.06 5.25.13 4.14.14 8.09.28 10.62-.48 1.94-.58 2.88-2.04 1.89-5.36-1.96-6.54-1.22-10.03-.52-13.33.41-1.92.8-3.76.43-6.22-1.4-9.27 0-14.8 2.13-23.26 1.08-4.28 2.36-9.35 3.55-16.03Zm2-319.5c3.07-2.05 7.5-3.08 11.88-3.08 4.4 0 8.82 1.03 11.9 3.08a12.6 12.6 0 0 1 3.4-4.62l.77-.66 1 .15c.73.1 1.39-.51 1.89-1.44.4-.74.68-1.65.87-2.61.19-1 .26-2.03.2-2.98-.09-1.53-.39-2.77-.88-2.9l-1.83-.5.2-1.87q.17-1.46.17-3.02c0-4.55-1.14-9.02-3.61-12.47-2.42-3.37-6.18-5.8-11.49-6.38a24 24 0 0 0-5.18 0c-5.3.58-9.06 3.01-11.48 6.38-2.48 3.45-3.61 7.92-3.61 12.47q0 1.56.16 3.02l.2 1.88-1.83.5c-.49.12-.78 1.36-.87 2.89-.06.95 0 1.98.2 2.98.18.97.48 1.87.87 2.6.5.94 1.15 1.56 1.9 1.45l.98-.15.77.66a13 13 0 0 1 3.41 4.62Zm22.9 2.99a12 12 0 0 0-3.45-1.9c.17 4.12 1.32 7.35 3.59 10.12q.69.85 1.53 1.65a18 18 0 0 1-1.62-4.87q-.45-2.54-.05-5Zm-6.4-2.7a24 24 0 0 0-3.15-.4v72.46c4.14-1.06 6.74-9.07 9.65-18 3.87-11.9 8.22-25.29 18.25-28.25a145 145 0 0 1-6.72-3.52c-6.3-2.99-10.8-5.91-13.75-9.51-2.87-3.5-4.23-7.56-4.27-12.79m-6.08-.4q-1.67.1-3.24.4c-.03 5.22-1.3 9.21-4 12.63-2.76 3.48-6.98 6.26-12.9 9.06a134 134 0 0 1-7.77 4.12c10.04 2.96 14.4 16.35 18.26 28.25l.34 1.03.04.14c2.75 8.45 5.31 15.82 9.27 16.83zm-6.18 1.22q-1.97.73-3.37 1.88.4 2.46-.05 5-.45 2.56-1.69 5 .98-.91 1.76-1.9c2.13-2.68 3.2-5.87 3.35-9.98Zm104.5 154.07a183 183 0 0 1-12.56-11.3 273 273 0 0 1-16.5-17.68c-4.32-5.06-9.16-11.88-13.65-18.9l-1.06-1.68.4 1.35c1.83 6.54 5.55 13.9 10.04 21.14 2.72 2.93 6.26 5.85 9.92 8.87 7.03 5.81 14.48 11.96 17.86 19.57 1.7-.84 3.6-1.3 5.56-1.37Zm-49.09-64.46c2.53 4.7 5.6 9.91 8.85 15.01 4.4 6.9 9.16 13.6 13.4 18.56a271 271 0 0 0 16.32 17.5q3.78 3.7 7.38 6.89l-.32-.98-.11-.39a63 63 0 0 0-6.37-13.48 77 77 0 0 0-10.01-12.92 54 54 0 0 1-1.8-1.92 10 10 0 0 1-1.2-1.4 46 46 0 0 1-8.74-16.42q-.4-1.07-.98-2.06c-1.7-2.4-4.98-3.6-8.58-4.92a46 46 0 0 1-7.84-3.47Zm41.06 67.49c-2.98-7.19-10.32-13.25-17.25-18.97l-1.32-1.1a232 232 0 0 0 11.5 14.72l.04.04a22 22 0 0 1 4.86 7.9q.91-1.5 2.17-2.6Zm-19.72-69.6a2 2 0 0 1-.04-.46c-.77-3-1.61-6.2-3.16-10.22-2.67-6.95-2.96-8.63-3.04-11.7q-.83 1.2-1.82 2.4l-.46.57.16.45c2.29 6.2 3.35 12.12 4.39 17.87 1.24 6.9 2.44 13.57 5.77 20.16-.23-2.18-.34-4.5-.45-6.83-.2-4.24-.4-8.58-1.35-12.23Zm4.29 12.5c.27 5.82.58 11.4 2.82 14.67a50 50 0 0 0 2.78 3.1c2.01 2.05 5.02 5.45 8.08 9.86l-1.22-3a158 158 0 0 0-9.11-18.24 78 78 0 0 1-3.35-6.4m-19.67-25.62q.02-.18.08-.36l.3-.78c1.27-3.77 2.5-7.54.37-10.99a2 2 0 0 1-.18-.42c-3-4.63-6.63-7.88-8.9-9.7a741 741 0 0 1-1.67 16.08L440.84 124l-.06.54.02.05a17 17 0 0 0 .67 1.28c3.25 5.67 8.65 7.65 13.48 9.42l.36.13c-6.38-5.36-5.03-10.71-3.25-16.08Zm5.78-9.62c1.63-2.1 2.89-4.2 2.92-8.18a26 26 0 0 0-7.6-16.22l.22.6c1.37 3.58 1.86 7.54 2.4 11.92.45 3.66.94 7.63 2.06 11.88m-1.04 6.3a22 22 0 0 0-1.64 3.28c-1.65 4.89-3.3 9.76 2.6 14.34a38 38 0 0 1 3.78 3.32q-.49-2.52-.95-5.08c-.9-5.02-1.83-10.18-3.6-15.52q-.12-.15-.18-.32zm-14.84-38.57a1.5 1.5 0 0 1-.59-.63l-.6-.33a187 187 0 0 0-7.4-3.77c-2.52 3.25-1.91 6.83.06 10.17 2.3 3.9 6.38 7.54 9.8 10.15q.26.13.46.35l.08.06a46 46 0 0 1 9.62 9.33q-.37-2.56-.66-4.96c-.48-3.92-.92-7.49-2.09-10.7-1.43-3.72-3.91-6.94-8.68-9.67M399.8 191c2.01-3.92 4.82-6.86 7.62-9.8 4.71-4.93 9.42-9.87 9.72-20l-1.48-1.72c-6.18-7.2-12.35-14.4-15.86-24.1zm-20.27-29.8c.3 10.13 5 15.07 9.72 20 2.8 2.94 5.6 5.88 7.62 9.8v-55.63c-3.5 9.71-9.68 16.9-15.86 24.1zm59.62-48.4c.66-5.93 1.27-11.65 1.66-16.05a69 69 0 0 1-13.54 3.65 70 70 0 0 1-15.75.9c-3.04 9.27-6 17.15-11.7 17.9.45 17.85 9.25 28.1 18.06 38.37 2.47 2.88 4.94 5.76 7.25 8.8-3.53-11.87.9-20.79 5.82-30.69 3.35-6.74 6.94-13.96 8.2-22.89M437 129.85a195 195 0 0 1-3.42 7.12c-5.07 10.2-9.59 19.28-4.53 31.7q1.03 2.5 1.85 4.63a42 42 0 0 1-.02-8.6c.43-4 1.37-7.77 2.4-11.89 1.5-5.96 3.18-12.7 3.66-21.74zm-65.45 36.51c2.3-3.04 4.77-5.92 7.24-8.8 8.82-10.27 17.62-20.52 18.07-38.38-5.7-.74-8.66-8.62-11.7-17.88-5.4.33-10.8-.09-15.71-.91a68 68 0 0 1-13.66-3.7c.35 3.95.88 8.98 1.46 14.26q.06.18.09.37c1.06 9.6 4.86 17.24 8.39 24.35 4.92 9.9 9.35 18.82 5.82 30.7Zm-5.76 6.94q.82-2.12 1.85-4.64c5.05-12.4.54-21.5-4.53-31.7-1.3-2.59-2.62-5.25-3.84-8.05.35 3.11.67 5.95.92 8.35.82 4.27 1.78 8.48 2.68 12.42 1.32 5.79 2.5 10.99 2.94 15.02.3 2.79.26 5.54-.02 8.6m-15.07-39.1a46 46 0 0 1-7.85 3.47c-3.6 1.32-6.88 2.52-8.58 4.92q-.56 1-.97 2.06a46 46 0 0 1-8.67 16.33q-.57.8-1.27 1.48-.86.97-1.8 1.93a77 77 0 0 0-10.02 12.92 63 63 0 0 0-6.53 13.95l-.05.19a227.97 227.97 0 0 0 23.49-23.67c4.23-4.97 9-11.67 13.4-18.57 3.25-5.1 6.32-10.3 8.85-15Zm-22.43-2.41q-.02 2.63.01 5.62c.05 4.24.1 8.81-.35 13 3.04-6.35 4.2-12.77 5.4-19.42 1.03-5.74 2.1-11.66 4.38-17.86v-.02l.16-.44-.45-.57a30 30 0 0 1-2.35-3.2c-.53 3.14-1.25 4.86-2.62 8.12-.7 1.65-1.55 3.68-2.41 5.94a28 28 0 0 0-1.77 8.83Zm-5.9 27.33c1.9-2.8 2.64-7.22 2.9-12q-.75.86-1.78 1.67c-5 4.02-8.64 9.61-11.4 16.22a86 86 0 0 0-3.96 12.3q.45-.78.93-1.53a80 80 0 0 1 10.4-13.43 50 50 0 0 0 2.9-3.23m22.28-40.52q.07.19.09.37c1.78 5.36 3.13 10.72-3.25 16.08l.35-.13c5.09-1.87 10.8-3.96 13.98-10.33l-.07-.59c-1.05-9.24-2.25-19.73-2.88-26.85a41 41 0 0 0-8.94 9.78c-2.05 3.43-.84 7.16.42 10.9zm-3.01.32a22 22 0 0 0-1.65-3.27q-.06.19-.18.34c-1.77 5.34-2.7 10.5-3.6 15.52q-.46 2.56-.95 5.08a38 38 0 0 1 3.78-3.32c5.9-4.58 4.25-9.46 2.6-14.34Zm-5.59-18.63c-.16 4.57 1.17 6.8 2.9 9.06 1.13-4.25 1.61-8.22 2.07-11.88.54-4.47 1.04-8.51 2.48-12.15q-.69.71-1.33 1.45a25.7 25.7 0 0 0-6.12 13.52Zm103.68-6.28c-3.23-2.64-6.7-6-8.84-9.63-2.27-3.86-3.11-8-.88-11.93-9.47 1.62-13.8 14.41-17.56 25.96 4.93.24 9.85-.16 14.33-.91a65 65 0 0 0 12.95-3.49m-96.46 8.77a46 46 0 0 1 10.06-9.65c3.43-2.63 7.57-6.3 9.9-10.24 1.97-3.34 2.58-6.92.06-10.17a186 186 0 0 0-8.46 4.36c-8.98 5.14-9.84 12.06-10.9 20.74q-.28 2.4-.66 4.96Zm13.66-8.78a65 65 0 0 0 12.98 3.5c4.47.75 9.36 1.15 14.29.91-3.76-11.55-8.1-24.34-17.56-25.96 2.23 3.93 1.38 8.07-.9 11.93-2.13 3.62-5.59 6.98-8.8 9.62" style="fill:#4a4337;fill-rule:nonzero"/>
</svg>